
<svg width="20px" height="15px" viewBox="0 0 20 15" version="1.1" xmlns="http://www.w3.org/2000/svg" xmlns:xlink="http://www.w3.org/1999/xlink">
    <!-- Generator: Sketch 43.2 (39069) - http://www.bohemiancoding.com/sketch -->
    <desc>Created with Sketch.</desc>
    <defs>
        <polygon id="path-1" points="0.0260869565 0.34656 0.0260869565 3.47515429 19.8253112 3.47515429 19.8253112 0.34656 0.0260869565 0.34656"></polygon>
    </defs>
    <g id="Page-1" stroke="none" stroke-width="1" fill="none" fill-rule="evenodd" opacity="0.2">
        <g id="menu" transform="translate(-29.000000, -182.000000)">
            <g id="dish-(1)" transform="translate(29.000000, 182.000000)">
                <g id="Group-3" transform="translate(0.000000, 11.291429)">
                    <mask id="mask-2" fill="white">
                        <use xlink:href="#path-1"></use>
                    </mask>
                    <g id="Clip-2"></g>
                    <path d="M19.7504348,0.71136 C19.6347826,0.485965714 19.4073913,0.34656 19.1543478,0.34656 L0.670869565,0.34656 C0.419565217,0.34656 0.190434783,0.485965714 0.0747826087,0.71136 C-0.0408695652,0.935451429 -0.022173913,1.20166857 0.125652174,1.40708571 L0.912173913,2.50626286 C1.34521739,3.11209143 2.04826087,3.47515429 2.79391304,3.47515429 L17.0313043,3.47515429 C17.7769565,3.47515429 18.4817391,3.11209143 18.9147826,2.50626286 L19.7008696,1.40708571 C19.8469565,1.20166857 19.8656522,0.935451429 19.7504348,0.71136 Z" id="Fill-1" fill="#000000" mask="url(#mask-2)"></path>
                </g>
                <path d="M18.7821739,10.9444343 C18.7821739,6.55250286 15.6282609,2.88452571 11.463913,2.07718857 C11.4691304,2.02116571 11.4773913,1.96688 11.4773913,1.91085714 C11.4773913,0.952388571 10.6978261,0.173714286 9.73826087,0.173714286 C8.78043478,0.173714286 7.99913043,0.952388571 7.99913043,1.91085714 C7.99913043,1.96688 8.00782609,2.02290286 8.01478261,2.07718857 C3.85,2.88452571 0.696521739,6.55250286 0.696521739,10.9444343 L0.696521739,11.2922971 L18.7821739,11.2922971 L18.7821739,10.9444343 Z M8.6973913,1.97035429 C8.69565217,1.94994286 8.69565217,1.92953143 8.69565217,1.91085714 C8.69565217,1.33586286 9.16434783,0.86944 9.73826087,0.86944 C10.3143478,0.86944 10.7830435,1.33586286 10.7830435,1.91085714 C10.7830435,1.93126857 10.7813043,1.94994286 10.7813043,1.97035429 C10.7643478,1.96861714 10.7473913,1.96861714 10.7321739,1.96688 C10.6113043,1.95341714 10.4926087,1.94299429 10.3704348,1.93648 C10.326087,1.93300571 10.2817391,1.92779429 10.2378261,1.92605714 C10.0713043,1.91606857 9.90652174,1.91085714 9.73826087,1.91085714 C9.57217391,1.91085714 9.40565217,1.91606857 9.24086957,1.92432 C9.19652174,1.92779429 9.1526087,1.93126857 9.10826087,1.93474286 C8.98608696,1.94299429 8.8673913,1.95341714 8.74652174,1.96688 C8.72956522,1.96861714 8.71434783,1.96861714 8.6973913,1.97035429 Z M6.31956522,4.90525714 C4.68086957,5.87545143 3.48695652,7.63648 3.12521739,9.61595429 C3.09434783,9.78402286 2.94826087,9.90084571 2.78347826,9.90084571 C2.76173913,9.90084571 2.74130435,9.89954286 2.72086957,9.89606857 C2.53043478,9.86219429 2.40652174,9.68066286 2.44043478,9.49218286 C2.83782609,7.31728 4.15608696,5.37819429 5.96478261,4.30811429 C6.13130435,4.20953143 6.34347826,4.26555429 6.44173913,4.43014857 C6.54043478,4.59474286 6.48434783,4.80841143 6.31956522,4.90525714 Z M9.73826087,3.99586286 L9.73521739,3.99586286 C9.21347826,3.99586286 8.6973913,4.05188571 8.19652174,4.16523429 C8.17086957,4.17044571 8.14521739,4.17392 8.12,4.17392 C7.96043478,4.17392 7.8173913,4.06361143 7.78043478,3.90249143 C7.73782609,3.71574857 7.85652174,3.52944 8.04347826,3.48688 C8.59391304,3.36310857 9.1626087,3.30013714 9.73347826,3.30013714 C9.93217391,3.29362286 10.0865217,3.45474286 10.0865217,3.648 C10.0865217,3.83952 9.93043478,3.99586286 9.73826087,3.99586286 Z" id="Fill-4" fill="#000000"></path>
            </g>
        </g>
    </g>
</svg>