
<svg width="30px" height="23px" viewBox="0 0 30 23" version="1.1" xmlns="http://www.w3.org/2000/svg" xmlns:xlink="http://www.w3.org/1999/xlink">
    <!-- Generator: Sketch 43.2 (39069) - http://www.bohemiancoding.com/sketch -->
    <desc>Created with Sketch.</desc>
    <defs>
        <polygon id="path-1" points="0.0391304348 0.5244 0.0391304348 5.25845714 29.7379668 5.25845714 29.7379668 0.5244 0.0391304348 0.5244"></polygon>
    </defs>
    <g id="Page-1" stroke="none" stroke-width="1" fill="none" fill-rule="evenodd">
        <g id="single_food-copy" transform="translate(-272.000000, -29.000000)">
            <g id="Group" transform="translate(272.000000, 29.000000)">
                <g id="dish-(1)">
                    <g id="Group-3" transform="translate(0.000000, 17.085714)">
                        <mask id="mask-2" fill="white">
                            <use xlink:href="#path-1"></use>
                        </mask>
                        <g id="Clip-2"></g>
                        <path d="M29.6256522,1.0764 C29.4521739,0.735342857 29.111087,0.5244 28.7315217,0.5244 L1.00630435,0.5244 C0.629347826,0.5244 0.285652174,0.735342857 0.112173913,1.0764 C-0.0613043478,1.41548571 -0.0332608696,1.81831429 0.188478261,2.12914286 L1.36826087,3.79237143 C2.01782609,4.70908571 3.0723913,5.25845714 4.19086957,5.25845714 L25.5469565,5.25845714 C26.6654348,5.25845714 27.7226087,4.70908571 28.3721739,3.79237143 L29.5513043,2.12914286 C29.7704348,1.81831429 29.7984783,1.41548571 29.6256522,1.0764 Z" id="Fill-1" fill="#FFFFFF" mask="url(#mask-2)"></path>
                    </g>
                    <path d="M28.1732609,16.5606571 C28.1732609,9.91497143 23.4423913,4.36474286 17.1958696,3.14311429 C17.2036957,3.05834286 17.216087,2.9762 17.216087,2.89142857 C17.216087,1.44111429 16.0467391,0.262857143 14.6073913,0.262857143 C13.1706522,0.262857143 11.9986957,1.44111429 11.9986957,2.89142857 C11.9986957,2.9762 12.0117391,3.06097143 12.0221739,3.14311429 C5.775,4.36474286 1.04478261,9.91497143 1.04478261,16.5606571 L1.04478261,17.0870286 L28.1732609,17.0870286 L28.1732609,16.5606571 Z M13.046087,2.98145714 C13.0434783,2.95057143 13.0434783,2.91968571 13.0434783,2.89142857 C13.0434783,2.02137143 13.7465217,1.3156 14.6073913,1.3156 C15.4715217,1.3156 16.1745652,2.02137143 16.1745652,2.89142857 C16.1745652,2.92231429 16.1719565,2.95057143 16.1719565,2.98145714 C16.1465217,2.97882857 16.121087,2.97882857 16.0982609,2.9762 C15.9169565,2.95582857 15.738913,2.94005714 15.5556522,2.9302 C15.4891304,2.92494286 15.4226087,2.91705714 15.3567391,2.91442857 C15.1069565,2.89931429 14.8597826,2.89142857 14.6073913,2.89142857 C14.3582609,2.89142857 14.1084783,2.89931429 13.8613043,2.9118 C13.7947826,2.91705714 13.728913,2.92231429 13.6623913,2.92757143 C13.4791304,2.94005714 13.301087,2.95582857 13.1197826,2.9762 C13.0943478,2.97882857 13.0715217,2.97882857 13.046087,2.98145714 Z M9.47934783,7.42242857 C7.02130435,8.89048571 5.23043478,11.5552 4.68782609,14.5504571 C4.64152174,14.8047714 4.4223913,14.9815429 4.17521739,14.9815429 C4.1426087,14.9815429 4.11195652,14.9795714 4.08130435,14.9743143 C3.79565217,14.9230571 3.60978261,14.6483714 3.66065217,14.3631714 C4.25673913,11.0722 6.23413043,8.13805714 8.94717391,6.51885714 C9.19695652,6.36968571 9.51521739,6.45445714 9.6626087,6.70351429 C9.81065217,6.95257143 9.72652174,7.27588571 9.47934783,7.42242857 Z M14.6073913,6.04637143 L14.6028261,6.04637143 C13.8202174,6.04637143 13.046087,6.13114286 12.2947826,6.30265714 C12.2563043,6.31054286 12.2178261,6.3158 12.18,6.3158 C11.9406522,6.3158 11.726087,6.14888571 11.6706522,5.90508571 C11.6067391,5.62251429 11.7847826,5.3406 12.0652174,5.2762 C12.8908696,5.08891429 13.743913,4.99362857 14.6002174,4.99362857 C14.8982609,4.98377143 15.1297826,5.22757143 15.1297826,5.52 C15.1297826,5.8098 14.8956522,6.04637143 14.6073913,6.04637143 Z" id="Fill-4" fill="#FFFFFF"></path>
                </g>
            </g>
        </g>
    </g>
</svg>