<svg width="18px" height="18px" viewBox="0 0 18 18" version="1.1" xmlns="http://www.w3.org/2000/svg" xmlns:xlink="http://www.w3.org/1999/xlink">
    <!-- Generator: Sketch 43.2 (39069) - http://www.bohemiancoding.com/sketch -->
    <desc>Created with Sketch.</desc>
    <defs></defs>
    <g id="Page-1" stroke="none" stroke-width="1" fill="none" fill-rule="evenodd">
        <g id="splash" transform="translate(-44.000000, -28.000000)" fill="#FFCC00">
            <g id="Group-2" transform="translate(43.000000, 27.000000)">
                <g id="menu-(2)">
                    <path d="M21.0072884,10.98682 L-1.03150965,10.98682 C-1.56637556,10.98682 -2,10.551283 -2,10.014058 C-2,9.47683303 -1.56637556,9.04129605 -1.03150965,9.04129605 L21.0072884,9.04129605 C21.5422012,9.04129605 21.9757788,9.47683303 21.9757788,10.014058 C21.9757788,10.551283 21.5422012,10.98682 21.0072884,10.98682" id="Fill-3" transform="translate(9.987889, 10.014058) rotate(45.000000) translate(-9.987889, -10.014058) "></path>
                    <path d="M21.0072884,10.98682 L-1.03150965,10.98682 C-1.56637556,10.98682 -2,10.551283 -2,10.014058 C-2,9.47683303 -1.56637556,9.04129605 -1.03150965,9.04129605 L21.0072884,9.04129605 C21.5422012,9.04129605 21.9757788,9.47683303 21.9757788,10.014058 C21.9757788,10.551283 21.5422012,10.98682 21.0072884,10.98682" id="Fill-3" transform="translate(9.987889, 10.014058) rotate(-45.000000) translate(-9.987889, -10.014058) "></path>
                </g>
            </g>
        </g>
    </g>
</svg>