
<svg width="64px" height="64px" viewBox="0 0 64 64" version="1.1" xmlns="http://www.w3.org/2000/svg" xmlns:xlink="http://www.w3.org/1999/xlink">
    <!-- Generator: Sketch 43.2 (39069) - http://www.bohemiancoding.com/sketch -->
    <desc>Created with Sketch.</desc>
    <defs>
        <linearGradient x1="-102.935791%" y1="-40.5057975%" x2="118.395996%" y2="100%" id="linearGradient-1">
            <stop stop-color="#1DAFDE" offset="0%"></stop>
            <stop stop-color="#24D667" offset="100%"></stop>
        </linearGradient>
        <polygon id="path-2" points="9.48238631 0.10106135 0.00347560976 0.10106135 0.00347560976 19 18.961297 19 18.961297 0.10106135 9.48238631 0.10106135"></polygon>
    </defs>
    <g id="Page-1" stroke="none" stroke-width="1" fill="none" fill-rule="evenodd">
        <g id="menu" transform="translate(-27.000000, -35.000000)">
            <circle id="Oval" fill="url(#linearGradient-1)" cx="59" cy="67" r="32"></circle>
            <g id="user-silhouette" transform="translate(49.000000, 56.000000)">
                <mask id="mask-3" fill="white">
                    <use xlink:href="#path-2"></use>
                </mask>
                <g id="Clip-2"></g>
                <path d="M9.48076829,10.1142362 C11.8286006,10.1142362 13.7320762,7.87264417 13.7320762,5.10767791 C13.7320762,1.27334969 11.8286006,0.10106135 9.48076829,0.10106135 C7.13270427,0.10106135 5.22922866,1.27334969 5.22922866,5.10767791 C5.22922866,7.87264417 7.13270427,10.1142362 9.48076829,10.1142362 Z" id="Fill-1" fill="#FFFFFF" mask="url(#mask-3)"></path>
                <path d="M18.8685061,17.4833221 L16.7236494,12.6219448 C16.6256951,12.3993067 16.453247,12.2149018 16.2387439,12.1026503 L12.9099787,10.3591963 C12.8367012,10.3207301 12.7477256,10.3282485 12.681689,10.378546 C11.740378,11.0950092 10.6333963,11.4736104 9.48076829,11.4736104 C8.32790854,11.4736104 7.22092683,11.0950092 6.27961585,10.378546 C6.21334756,10.3282485 6.12442988,10.3207301 6.05109451,10.3591963 L2.72256098,12.1026503 C2.50782622,12.2149018 2.33584146,12.3993067 2.23765549,12.6219448 L0.0927987805,17.4833221 C-0.0552042683,17.8184448 -0.0249085366,18.2018252 0.173780488,18.5091472 C0.372469512,18.8165276 0.708445122,19 1.07280488,19 L17.8883262,19 C18.2528598,19 18.5888354,18.8165276 18.7875244,18.5091472 C18.9859817,18.2018252 19.0165091,17.8182117 18.8685061,17.4833221 Z" id="Fill-3" fill="#FFFFFF" mask="url(#mask-3)"></path>
            </g>
        </g>
    </g>
</svg>