
<svg width="14px" height="14px" viewBox="0 0 14 14" version="1.1" xmlns="http://www.w3.org/2000/svg" xmlns:xlink="http://www.w3.org/1999/xlink">
    <!-- Generator: Sketch 43.2 (39069) - http://www.bohemiancoding.com/sketch -->
    <desc>Created with Sketch.</desc>
    <defs>
        <polygon id="path-1" points="0.001640625 14 0.001640625 0 14 0 14 14"></polygon>
    </defs>
    <g id="Page-1" stroke="none" stroke-width="1" fill="none" fill-rule="evenodd" opacity="0.206156716">
        <g id="menu" transform="translate(-31.000000, -135.000000)">
            <g id="menu-(1)" transform="translate(31.000000, 135.000000)">
                <g id="Group-5">
                    <mask id="mask-2" fill="white">
                        <use xlink:href="#path-1"></use>
                    </mask>
                    <g id="Clip-2"></g>
                    <polyline id="Fill-1" fill="#0A0A08" mask="url(#mask-2)" points="0.913035156 0 0 0 0 6.39130078 6.39130078 6.39130078 6.39130078 0 0.913035156 0"></polyline>
                    <polyline id="Fill-3" fill="#0A0A08" mask="url(#mask-2)" points="13.0869648 0 7.60869922 0 7.60869922 6.39130078 14 6.39130078 14 0 13.0869648 0"></polyline>
                    <polyline id="Fill-4" fill="#0A0A08" mask="url(#mask-2)" points="0.913035156 7.60869922 0 7.60869922 0 14 6.39130078 14 6.39130078 7.60869922 0.913035156 7.60869922"></polyline>
                </g>
                <polyline id="Fill-6" fill="#0A0A08" points="8.52173437 7.60869922 7.60869922 7.60869922 7.60869922 14 14 14 14 7.60869922 8.52173437 7.60869922"></polyline>
            </g>
        </g>
    </g>
</svg>