
<svg width="16px" height="16px" viewBox="0 0 16 16" version="1.1" xmlns="http://www.w3.org/2000/svg" xmlns:xlink="http://www.w3.org/1999/xlink">
    <!-- Generator: Sketch 43.2 (39069) - http://www.bohemiancoding.com/sketch -->
    <desc>Created with Sketch.</desc>
    <defs>
        <polygon id="path-1" points="0.001875 16 0.001875 0 16 0 16 16"></polygon>
    </defs>
    <g id="Page-1" stroke="none" stroke-width="1" fill="none" fill-rule="evenodd" opacity="0.206156716">
        <g id="menu" transform="translate(-31.000000, -135.000000)">
            <g id="menu-(1)" transform="translate(31.000000, 135.000000)">
                <g id="Group-5">
                    <mask id="mask-2" fill="white">
                        <use xlink:href="#path-1"></use>
                    </mask>
                    <g id="Clip-2"></g>
                    <polyline id="Fill-1" fill="#0A0A08" mask="url(#mask-2)" points="1.04346875 0 0 0 0 7.30434375 7.30434375 7.30434375 7.30434375 0 1.04346875 0"></polyline>
                    <polyline id="Fill-3" fill="#0A0A08" mask="url(#mask-2)" points="14.9565312 0 8.69565625 0 8.69565625 7.30434375 16 7.30434375 16 0 14.9565312 0"></polyline>
                    <polyline id="Fill-4" fill="#0A0A08" mask="url(#mask-2)" points="1.04346875 8.69565625 0 8.69565625 0 16 7.30434375 16 7.30434375 8.69565625 1.04346875 8.69565625"></polyline>
                </g>
                <polyline id="Fill-6" fill="#0A0A08" points="9.739125 8.69565625 8.69565625 8.69565625 8.69565625 16 16 16 16 8.69565625 9.739125 8.69565625"></polyline>
            </g>
        </g>
    </g>
</svg>