
<svg width="168px" height="75px" viewBox="0 0 168 75" version="1.1" xmlns="http://www.w3.org/2000/svg" xmlns:xlink="http://www.w3.org/1999/xlink">
    <!-- Generator: Sketch 43.2 (39069) - http://www.bohemiancoding.com/sketch -->
    <desc>Created with Sketch.</desc>
    <defs>
        <linearGradient x1="4.34512868%" y1="31.7255499%" x2="77.34375%" y2="50%" id="linearGradient-1">
            <stop stop-color="#00CEFF" offset="0%"></stop>
            <stop stop-color="#07FF64" offset="100%"></stop>
        </linearGradient>
    </defs>
    <g id="Page-1" stroke="none" stroke-width="1" fill="none" fill-rule="evenodd">
        <g id="splash" transform="translate(-68.000000, -150.000000)">
            <g id="Group" transform="translate(68.000000, 150.000000)">
                <path d="M4.28273989,56.6926436 L1.59037417,58.1158045 C1.17295104,58.3257113 0.89328174,58.4306631 0.751357876,58.4306631 C0.492555536,58.4306631 0.302630861,58.3488007 0.181578153,58.1850734 C0.0605254458,58.0213461 0,57.7673627 0,57.4231155 C0,57.0284908 0.0834833736,56.5729999 0.250452625,56.0566292 C0.417421877,55.5402585 0.609433636,55.1603329 0.826493663,54.916841 C1.05190215,54.6649529 1.57993449,54.3186119 2.41060652,53.8778077 C3.24127854,53.4370034 4.24099194,52.9941067 5.4097767,52.5491043 C6.57856147,52.104102 7.79741872,51.7346715 9.06638503,51.440802 C10.3353513,51.1469325 11.4957702,51 12.5476765,51 C13.2823412,51 13.8249832,51.117546 14.1756186,51.3526416 C14.526254,51.5877372 14.7015691,52.209052 14.7015691,53.2166046 C14.7015691,53.7623622 14.5158186,54.3689837 14.144312,55.0364873 C13.7728054,55.7039909 13.3261694,56.3525931 12.8043905,56.9823135 C12.2826116,57.6120339 11.3162915,58.7287212 9.90540133,60.3324091 C10.656763,60.2148613 11.2077532,60.1392959 11.5583887,60.1057109 C11.9090241,60.0721258 12.5643686,60.0007585 13.5244418,59.891607 C14.6347873,58.2795229 15.5322336,56.9928136 16.2168075,56.0314405 C16.9013814,55.0700674 17.4815909,54.2724336 17.9574532,53.6385151 C18.4333156,53.0045966 18.7171591,52.6414633 18.8089922,52.5491043 C18.9759614,52.3559901 19.1157961,52.2825238 19.2285003,52.3287033 C19.3412045,52.3748828 19.3975558,52.5491028 19.3975558,52.8513686 C19.3975558,53.1956157 19.3620754,53.4768866 19.2911135,53.6951897 C19.2201515,53.9134927 19.1095361,54.1296935 18.9592637,54.3437984 C18.8089914,54.5579033 18.7296822,54.6733503 18.7213337,54.6901429 C18.5042737,55.0511825 18.1912111,55.5234657 17.7821364,56.1070066 C17.3730617,56.6905474 16.9723415,57.2677824 16.5799638,57.8387289 C16.187586,58.4096754 15.74095,59.0855651 15.2400422,59.8664183 C16.1750701,59.9000034 17.0975613,60.0217475 18.0075438,60.2316543 L15.7534701,63.3046743 C15.1356839,63.2207116 14.3133727,63.1787309 13.2865118,63.1787309 C13.0360579,63.6825071 12.841959,64.077126 12.7042094,64.3625992 C12.5664598,64.6480724 12.4495831,64.9188481 12.3535757,65.1749344 C12.2575684,65.4310207 12.2095655,65.6682118 12.2095655,65.8865149 C12.2095655,66.0208552 12.2492201,66.1992733 12.3285305,66.4217745 C12.4078409,66.6442757 12.4474955,66.7723169 12.4474955,66.805902 C12.4474955,66.9738274 12.3243575,67.1522455 12.0780779,67.3411616 C11.8317982,67.5300777 11.5437806,67.6959016 11.2140163,67.8386382 C10.884252,67.9813748 10.6275406,68.0527421 10.4438745,68.0527421 C10.1349814,68.0527421 9.98053712,67.81765 9.98053712,67.3474588 C9.98053712,66.3734913 10.4772632,65.0175138 11.4707302,63.2794856 C10.1516731,63.3886371 8.63644992,63.5859466 6.92501509,63.8714198 C6.4324558,64.526329 5.98581975,65.1476437 5.58509354,65.7353827 C5.18436734,66.3231217 4.8566951,66.8184943 4.60206699,67.2215153 C4.34743888,67.6245364 4.15960129,67.893213 4.03854858,68.0275534 C3.91749587,68.1618937 3.78600956,68.2290629 3.6440857,68.2290629 C3.40198028,68.2290629 3.19744602,68.1241111 3.03047677,67.9142043 C2.9553406,67.8302416 2.90733766,67.7462801 2.88646651,67.6623174 C2.86559535,67.5783547 2.85515993,67.4859971 2.85515993,67.3852418 L2.85515993,67.1207606 C2.85515993,67.0200053 2.90942412,66.8730728 3.01795413,66.6799585 C3.12648415,66.4868443 3.38528261,66.1027206 3.79435727,65.527576 C4.20343194,64.9524315 4.50397208,64.5179309 4.69598672,64.2240614 C4.4789267,64.2492502 4.19925739,64.2618445 3.85697043,64.2618445 C3.42285037,64.2618445 3.07013312,64.1820811 2.79880809,64.0225519 C2.52748305,63.8630228 2.39182257,63.6657133 2.39182257,63.4306177 C2.39182257,63.161937 2.46278344,62.8743691 2.6047073,62.5679052 C2.74663117,62.2614412 2.93029459,62.0053588 3.15570308,61.7996502 C3.38111157,61.5939415 3.60651668,61.4910887 3.83192517,61.4910887 C3.98219749,61.4910887 4.16168675,61.5372675 4.37039831,61.6296265 L7.60123718,60.8235885 C9.40450509,58.858861 10.7485874,57.305574 11.6335244,56.1636811 C12.5184615,55.0217882 12.9609234,54.2871255 12.9609234,53.9596709 C12.9609234,53.7749529 12.9108333,53.6217233 12.8106518,53.4999773 C12.7104702,53.3782314 12.5706356,53.2837748 12.3911436,53.2166046 C12.2116517,53.1494344 12.0050303,53.1158498 11.7712734,53.1158498 C11.4957741,53.1158498 11.0595735,53.1914151 10.4626584,53.342548 C9.86574334,53.4936809 9.15404758,53.7161788 8.32754979,54.0100483 C7.50105199,54.3039178 6.47003233,54.7111308 5.23445987,55.2316997 C4.31612898,55.6095319 3.85697043,55.848822 3.85697043,55.9495773 C3.85697043,56.0671251 3.91958296,56.1426904 4.0448099,56.1762755 C4.17003684,56.2098606 4.33074233,56.235049 4.5269312,56.2518415 C4.72312007,56.2686341 4.82121304,56.2980206 4.82121304,56.3400019 C4.82121304,56.373587 4.7732101,56.4197658 4.67720278,56.4785397 C4.58119546,56.5373136 4.44970914,56.6086809 4.28273989,56.6926436 Z M20.1864816,64.2366558 L20.1864816,64.5515144 C20.1864816,65.0468944 20.3075325,65.4331171 20.5496379,65.710194 C20.7917433,65.987271 21.1089801,66.1258074 21.5013579,66.1258074 C21.9104325,66.1258074 22.3341107,66.0292517 22.7724049,65.8361375 C23.2106992,65.6430232 23.6468999,65.3869408 24.0810199,65.0678825 C24.51514,64.7488242 25.0452594,64.3206207 25.6713941,63.7832594 L25.6713941,64.5515144 C24.7280178,65.6934073 23.8430941,66.5687055 23.0165963,67.1774351 C22.1900985,67.7861648 21.3510906,68.0905251 20.4995474,68.0905251 C19.7565342,68.0905251 19.1679764,67.8008581 18.7338564,67.2215153 C18.2997363,66.6421726 18.0826795,65.8487369 18.0826795,64.8411843 C18.0826795,63.9595758 18.2872138,63.1598429 18.6962885,62.4419617 C19.1053631,61.7240805 19.7732301,60.9663284 20.6999095,60.1686826 C21.3343926,59.6229249 21.9646921,59.2115138 22.5908268,58.9344369 C23.2169615,58.6573599 23.7763001,58.5188235 24.2688594,58.5188235 C24.6612371,58.5188235 24.9722127,58.6090821 25.2017954,58.7896019 C25.4313781,58.9701217 25.5461678,59.2408974 25.5461678,59.6019371 C25.5461678,60.1309022 25.3499818,60.6577603 24.9576041,61.1825273 C24.5652264,61.7072943 23.9662332,62.2278553 23.1606065,62.744226 C22.3549799,63.2605967 21.3636148,63.7580683 20.1864816,64.2366558 Z M20.3117079,63.4180234 C21.0630695,63.1241539 21.7058915,62.7589216 22.2401931,62.3223154 C22.7744947,61.8857093 23.1689537,61.4680011 23.4235818,61.0691782 C23.6782099,60.6703553 23.805522,60.3785892 23.805522,60.1938713 C23.805522,60.000757 23.7178645,59.9042014 23.5425468,59.9042014 C23.3922744,59.9042014 23.1480856,60.000757 22.8099728,60.1938713 C22.4718601,60.3869855 22.1295783,60.6388699 21.7831171,60.9495319 C21.4366559,61.260194 21.1256803,61.6254263 20.8501811,62.0452399 C20.5746818,62.4650534 20.3951925,62.9226434 20.3117079,63.4180234 Z M27.1365419,61.5288718 C28.4055083,60.3701863 29.636888,59.5095814 30.8307182,58.9470312 C32.0245483,58.384481 32.9470396,58.1032101 33.5982197,58.1032101 C33.7735374,58.1032101 33.93633,58.1766764 34.0866023,58.3236112 C34.2368746,58.4705459 34.3558384,58.6405679 34.4434973,58.8336821 C34.5311561,59.0267963 34.5749849,59.1695308 34.5749849,59.2618898 C34.5749849,59.4130227 34.5165466,59.5242716 34.3996681,59.5956399 C34.2827896,59.6670082 34.0782553,59.7530687 33.7860591,59.853824 C33.8444984,59.9881643 33.9196334,60.1602853 34.0114665,60.3701921 C34.1032996,60.5800989 34.1742605,60.7501208 34.2243512,60.880263 C34.274442,61.0104052 34.299487,61.1258522 34.299487,61.2266075 C34.299487,61.428118 34.0970398,61.8038455 33.6921394,62.3538013 C33.287239,62.9037571 33.0033955,63.3088711 32.8406005,63.5691555 C32.6778055,63.8294399 32.5964092,64.1484935 32.5964092,64.5263257 C32.5964092,65.1476498 32.8802526,65.4583072 33.4479481,65.4583072 C34.0323405,65.4583072 34.9464834,64.9083596 36.1904043,63.8084481 L36.1904043,64.5767031 C34.0782433,66.9360553 32.5671943,68.1157138 31.6572118,68.1157138 C31.3316218,68.1157138 31.0999554,68.0086629 30.9622058,67.794558 C30.8244562,67.5804531 30.7555824,67.2634986 30.7555824,66.843685 C30.7555824,66.1803796 30.99351,65.2190209 31.4693724,63.9595802 C30.2504968,65.3197762 29.3447022,66.2874319 28.7519614,66.8625765 C28.1592205,67.4377211 27.6708428,67.7252891 27.2868135,67.7252891 C27.1031473,67.7252891 26.8735681,67.5657623 26.5980688,67.246704 C26.3225695,66.9276457 26.0783807,66.5141355 25.8654949,66.0061611 C25.6526091,65.4981867 25.5461678,64.9713286 25.5461678,64.4255709 C25.5461678,64.0309462 25.5837353,63.7013975 25.6588715,63.4369149 C25.7340076,63.1724324 25.8801035,62.9016567 26.0971635,62.6245797 C26.3142236,62.3475027 26.6606796,61.9822704 27.1365419,61.5288718 Z M33.1348823,60.1434939 C30.964282,61.1426502 29.4177526,61.9906609 28.4952474,62.6875514 C27.5727423,63.384442 27.1114967,64.1023124 27.1114967,64.8411843 C27.1114967,65.109865 27.1574125,65.3302638 27.2492456,65.5023874 C27.3410787,65.6745109 27.4663038,65.7605714 27.6249246,65.7605714 C27.7167577,65.7605714 27.8795502,65.7017984 28.1133072,65.5842506 C28.9898958,65.0636818 29.7913361,64.385693 30.5176524,63.550264 C31.2439686,62.714835 32.1163699,61.5792563 33.1348823,60.1434939 Z M42.0635184,63.6447216 L42.0635184,64.5767031 C40.3186897,66.9024703 38.8994724,68.0653364 37.8058238,68.0653364 C37.2130829,68.0653364 36.7476631,67.7399858 36.4095504,67.0892747 C36.0714377,66.4385637 35.9023838,65.5842559 35.9023838,64.5263257 C35.9023838,63.669906 36.1027439,62.6518733 36.5034701,61.4721972 C36.9041963,60.2925211 37.440577,59.0960703 38.1126282,57.8828091 C38.7846795,56.6695479 39.4817657,55.6116336 40.2039077,54.7090344 C40.9260497,53.8064352 41.5960038,53.1746252 42.21379,52.8135856 C42.4642439,52.6624527 42.6604298,52.5868874 42.8023537,52.5868874 C42.9776714,52.5868874 43.0945481,52.6645517 43.1529873,52.8198827 C43.2114266,52.9752138 43.2406457,53.2417914 43.2406457,53.6196236 C43.2406457,54.7867053 42.7689647,56.2203472 41.8255884,57.9205921 C40.8822121,59.6208371 39.567349,61.3567402 37.8809596,63.1283535 C37.7974749,63.5649596 37.7557333,63.9008054 37.7557333,64.135901 C37.7557333,64.6732624 37.8705229,65.1098619 38.1001056,65.4457128 C38.3296883,65.7815637 38.6490122,65.9494866 39.0580869,65.9494866 C39.2667985,65.9494866 39.4922036,65.8676242 39.734309,65.7038969 C39.9764144,65.5401696 40.2310387,65.336563 40.4981895,65.0930712 C40.7653403,64.8495793 41.2871114,64.3668009 42.0635184,63.6447216 Z M38.3192517,61.3777396 C38.7533717,60.9495298 39.1728757,60.4625533 39.5777761,59.9167957 C39.9826765,59.3710381 40.364613,58.7875059 40.7235969,58.1661819 C41.0825808,57.5448578 41.3643371,56.9865141 41.5688745,56.4911341 C41.7734118,55.9957541 41.8756789,55.6221256 41.8756789,55.3702374 C41.8756789,55.1771232 41.8088922,55.0805675 41.6753168,55.0805675 C41.6252261,55.0805675 41.5292202,55.1267463 41.3872963,55.2191053 C40.8780401,55.6389189 40.306179,56.4596421 39.6716958,57.6812996 C39.0372127,58.9029571 38.5864025,60.1350915 38.3192517,61.3777396 Z M46.3462583,57.2467947 L46.8847314,57.2467947 C47.3272,56.4491489 47.7279202,55.8845082 48.086904,55.5528554 C48.4458879,55.2212027 48.8549565,55.0553788 49.3141219,55.0553788 C49.7732873,55.0553788 50.0028666,55.1603307 50.0028666,55.3702374 C50.0028666,55.4709927 49.8233774,55.7438674 49.4643935,56.1888698 C49.1054096,56.6338722 48.8340886,57.0075007 48.6504225,57.3097664 C48.9342702,57.3433515 49.1868074,57.372738 49.4080416,57.3979269 C49.6292759,57.4231157 49.8025039,57.444106 49.9277308,57.4608986 C49.4518685,58.3509034 48.8549624,59.2618851 48.1369946,60.1938713 C47.9032376,60.1770787 47.7070517,60.1623855 47.5484309,60.1497911 C47.3898101,60.1371967 47.2291046,60.1246024 47.0663096,60.112008 C46.9035146,60.0994136 46.7052416,60.0847204 46.4714846,60.0679278 C46.0206676,60.7984034 45.6429054,61.4512038 45.3381865,62.0263484 C45.0334676,62.6014929 44.7997142,63.1283511 44.6369191,63.6069386 C44.4741241,64.085526 44.3927278,64.5389179 44.3927278,64.9671277 C44.3927278,65.5464705 44.6223071,65.8361375 45.0814725,65.8361375 C45.3987141,65.8361375 45.8140439,65.6661155 46.3274744,65.3260665 C46.8409048,64.9860175 47.5275555,64.4633575 48.3874472,63.7580707 L48.3874472,64.6018917 C46.1333623,67.0619993 44.467869,68.2920346 43.3909173,68.2920346 C43.0152365,68.2920346 42.7126093,68.1451021 42.4830266,67.8512326 C42.2534438,67.5573631 42.1386542,67.1795365 42.1386542,66.7177416 C42.1386542,66.4070795 42.2033538,66.0376491 42.332755,65.6094393 C42.4621561,65.1812294 42.6938225,64.5347262 43.027761,63.6699103 C42.9108825,63.7706655 42.8002671,63.8693202 42.6959113,63.9658774 C42.5915555,64.0624345 42.4955496,64.150594 42.4078908,64.2303586 C42.3202319,64.3101232 42.2263131,64.3940846 42.1261316,64.4822455 C42.02595,64.5704063 41.92577,64.6606649 41.8255884,64.7530239 L41.8255884,63.8840141 C42.702177,63.1451422 43.7624158,61.8479378 45.0063368,59.9923618 C44.8811098,59.9839655 44.7642331,59.9776684 44.6557031,59.9734702 C44.5471731,59.9692721 44.4177738,59.9671731 44.2675015,59.9671731 C43.7749422,59.9671731 43.4076154,60.0007577 43.16551,60.0679278 C43.0653284,60.0931166 42.9714096,60.1204041 42.8837508,60.1497911 C42.7960919,60.179178 42.7355665,60.1938713 42.7021726,60.1938713 C42.6687788,60.1938713 42.6520821,60.1686828 42.6520821,60.1183052 C42.6520821,59.8412282 42.823223,59.425619 43.16551,58.8714651 C43.4410092,58.4012739 43.7018948,58.0528339 43.9481744,57.8261346 C44.1944541,57.5994352 44.4949942,57.4462056 44.8498039,57.366441 C45.2046135,57.2866764 45.7034267,57.2467947 46.3462583,57.2467947 Z M57.7293301,63.7832594 L57.7293301,64.5767031 C57.0030139,65.3239712 56.3748015,65.9347908 55.8446741,66.4091801 C55.3145467,66.8835695 54.851214,67.2425047 54.454662,67.4859966 C54.0581101,67.7294884 53.7220895,67.8512326 53.4465902,67.8512326 C52.7954101,67.8512326 52.469825,67.4650099 52.469825,66.6925529 C52.469825,66.0712288 52.6722722,65.3512593 53.0771726,64.5326229 C53.482073,63.7139864 54.0643696,62.7505287 54.8240797,61.6422209 C54.4483988,61.8521276 54.0935945,62.0935168 53.759656,62.3663956 C53.4257175,62.6392745 53.1293515,62.9247434 52.8705492,63.2228111 C52.6117468,63.5208787 52.3946901,63.7748621 52.2193724,63.9847689 C51.6767223,64.5976967 51.1549512,65.2253086 50.6540435,65.8676233 C50.1531357,66.5099381 49.815028,66.9276463 49.6397103,67.1207606 C49.4643926,67.3138748 49.2974259,67.4104305 49.1388051,67.4104305 C48.487625,67.4104305 48.1620398,66.6044005 48.1620398,64.9923164 C48.1620398,64.4633513 48.241349,63.8798192 48.3999698,63.2417026 C48.5585906,62.6035859 48.9843558,61.7597733 49.6772782,60.7102394 C51.1382592,58.5104163 52.3884227,56.7115421 53.4278063,55.3135629 C54.4671899,53.9155837 55.3291557,52.8576694 56.0137296,52.1397882 C56.6983036,51.4219069 57.1574621,51.0713679 57.3912191,51.0881604 C57.6834153,51.1133492 57.9192558,51.1721222 58.0987477,51.2644812 C58.2782397,51.3568402 58.3679843,51.461792 58.3679843,51.5793398 C58.3679843,51.7892466 58.2239755,52.1355876 57.9359535,52.6183732 C57.6479316,53.1011588 57.1532926,53.8547129 56.4520217,54.879058 C55.6923116,55.962177 55.1538439,56.7241272 54.8366023,57.1649315 C54.5193607,57.6057357 54.0455926,58.2312486 53.4152836,59.0414888 C52.7849747,59.851729 52.2089394,60.5737975 51.6871605,61.207716 C51.1653816,61.8416345 50.5705626,62.5280194 49.9026856,63.2668913 L49.9026856,64.7782126 C51.0213796,63.5271681 51.9897867,62.5028384 52.807936,61.7051926 C53.6260854,60.9075468 54.3189974,60.3051233 54.8866928,59.8979042 C55.4543883,59.490685 55.8718051,59.2870785 56.1389559,59.2870785 C56.3894098,59.2870785 56.6231633,59.4361101 56.8402233,59.7341777 C57.0572833,60.0322453 57.1658117,60.2778326 57.1658117,60.4709468 C57.1658117,60.5549096 57.12407,60.6598614 57.0405854,60.7858055 C56.4394961,61.5078848 55.9615538,62.1061102 55.6067441,62.5804995 C55.2519345,63.0548888 54.9785264,63.4788942 54.7865118,63.8525283 C54.5944971,64.2261623 54.4984912,64.5473149 54.4984912,64.8159956 C54.4984912,65.2106204 54.6863288,65.4079298 55.0620097,65.4079298 C55.4627359,65.4079298 56.3518338,64.8663784 57.7293301,63.7832594 Z M63.5022631,64.2744388 L61.2732348,66.1761848 C60.21298,67.1081709 59.5033713,67.574157 59.1443874,67.574157 C58.8187974,67.574157 58.4765156,67.1984295 58.1175317,66.4469632 C57.7585478,65.6954969 57.5790585,65.0384985 57.5790585,64.4759483 C57.5790585,63.9973608 57.6521065,63.5922468 57.7982046,63.2605941 C57.9443027,62.9289414 58.1968399,62.4986389 58.5558238,61.9696738 C59.06508,61.2559907 59.5534577,60.6514683 60.0209716,60.1560882 C60.4884855,59.6607082 60.9017282,59.2765846 61.2607121,59.0037057 C61.619696,58.7308269 61.8701461,58.5943896 62.01207,58.5943896 C62.2374785,58.5943896 62.4566224,58.7119356 62.6695081,58.9470312 C62.8823939,59.1821268 62.9888352,59.425615 62.9888352,59.6775032 C62.9888352,59.8370323 62.8740456,60.0931148 62.6444629,60.4457582 C62.4148802,60.7984016 62.0517275,61.2454963 61.554994,61.7870558 C61.0582604,62.3286153 60.3674355,62.9772176 59.4824985,63.732882 L59.2445685,64.4255709 C59.1777808,64.5599113 59.1443874,64.6774573 59.1443874,64.7782126 C59.1443874,65.0049119 59.25709,65.1182599 59.4824985,65.1182599 C59.7162554,65.1182599 60.2651586,64.8201967 61.1292245,64.2240614 C61.9932904,63.6279261 62.9303912,62.8260943 63.9405552,61.8185417 C64.332933,61.4239169 64.6585181,61.0754769 64.9173205,60.7732111 C65.1761228,60.4709453 65.4098762,60.1875754 65.6185878,59.9230929 C65.8272994,59.6586103 66.0005274,59.4592019 66.138277,59.3248615 C66.2760266,59.1905212 66.3991646,59.1191539 66.5076946,59.1107577 C66.7164062,59.0855689 66.8791988,59.1737284 66.9960772,59.3752389 C67.1129557,59.5767494 67.1713941,59.8748126 67.1713941,60.2694373 C67.1713941,60.4961367 67.071214,60.7795066 66.8708509,61.1195556 C66.6704878,61.4596046 66.2948127,62.0389386 65.7438141,62.8575751 C65.1928156,63.6762115 64.6439124,64.5242222 64.0970881,65.4016326 C63.5502638,66.279043 62.9930123,67.2676891 62.4253168,68.3676007 C62.4503622,68.3424119 62.7070736,68.0905275 63.1954587,67.61194 C63.6838437,67.1333525 64.1993536,66.6337819 64.7420036,66.1132131 C65.2846537,65.5926442 65.7312897,65.174936 66.0819252,64.8600758 C66.4325606,64.5452156 66.8708483,64.1778843 67.3968014,63.7580707 L67.3968014,64.6018917 C66.269759,65.8193511 65.2491748,66.9738211 64.3350181,68.0653364 C63.4208615,69.1568517 62.7154269,70.0300508 62.2186934,70.68496 C61.7219599,71.3398692 61.4318552,71.7218938 61.3483705,71.8310453 C61.1229621,72.1249148 60.9205149,72.3998886 60.7410229,72.6559749 C60.561531,72.9120611 60.4112609,73.1093706 60.2902082,73.247909 C60.1691555,73.3864475 60.0710625,73.4557157 59.9959264,73.4557157 C59.8206087,73.4557157 59.6640773,73.2814957 59.5263277,72.9330504 C59.3885781,72.5846052 59.3197043,72.2760468 59.3197043,72.0073661 C59.3197043,71.7638743 59.3656201,71.5497726 59.4574532,71.3650546 C60.0585425,70.0048586 61.406799,67.6413436 63.5022631,64.2744388 Z M82.5992758,63.7580707 L82.5992758,64.6018917 C82.0482773,65.105668 81.6058154,65.4415139 81.2718769,65.6094393 C80.9379384,65.7773647 80.457909,65.8445339 79.8317743,65.8109488 C78.7464742,67.1039746 77.7905895,67.7504778 76.9640917,67.7504778 C76.4965778,67.7504778 76.0708126,67.5951491 75.6867833,67.2844871 C75.3027541,66.973825 74.9959527,66.5498197 74.7663699,66.0124583 C74.5367872,65.4750969 74.4219976,64.8747725 74.4219976,64.2114671 C74.4219976,63.6741057 74.5993998,63.0779794 74.9542094,62.4230702 C75.3090191,61.768161 75.7681776,61.1573414 76.3316989,60.5905931 C76.8952201,60.0238448 77.4983875,59.5662549 78.1412191,59.2178096 C78.7840507,58.8693643 79.3809568,58.6951443 79.9319553,58.6951443 C80.3243331,58.6951443 80.6332216,58.7560164 80.8586301,58.8777623 C81.0840385,58.9995082 81.1967411,59.1695302 81.1967411,59.3878332 C81.1967411,59.5557587 81.1007352,59.74887 80.9087206,59.9671731 C81.2259622,60.0343432 81.4430189,60.1455922 81.5598974,60.3009232 C81.6767759,60.4562542 81.7352142,60.7396241 81.7352142,61.1510414 C81.7352142,61.5540625 81.6412954,62.0620293 81.453455,62.6749571 C81.2656146,63.2878849 81.0089033,63.8630209 80.6833132,64.4003822 L80.9087206,64.6270804 L81.09656,64.6270804 C81.2384839,64.6270804 81.3783186,64.5913968 81.5160682,64.5200285 C81.6538178,64.4486602 81.7769558,64.3730949 81.8854858,64.2933303 C81.9940158,64.2135657 82.2319434,64.0351476 82.5992758,63.7580707 Z M80.0196138,60.4457582 C79.3266914,60.8655717 78.7339594,61.2454973 78.2414001,61.5855463 C77.7488408,61.9255953 77.331424,62.2698373 76.989137,62.6182825 C76.64685,62.9667278 76.4172708,63.3172669 76.3003923,63.6699103 C76.0916807,64.6102927 75.9873265,65.1182595 75.9873265,65.1938259 C75.9873265,65.7479798 76.37135,66.0250526 77.1394086,66.0250526 C77.4983925,66.0250526 78.0994728,65.7143953 78.9426675,65.0930712 C78.8007436,64.6984464 78.7297827,64.3206199 78.7297827,63.9595802 C78.7297827,63.4306151 78.8383111,62.8911627 79.0553712,62.341207 C79.2724312,61.7912512 79.5938422,61.1594412 80.0196138,60.4457582 Z M82.4490042,64.7530239 L82.4490042,63.9343915 C82.8998212,63.3970301 83.242103,62.9394402 83.47586,62.561608 C83.2087092,62.469249 83.0146103,62.355901 82.8935576,62.2215607 C82.7725049,62.0872203 82.7119795,61.8857129 82.7119795,61.6170322 C82.7119795,61.3147664 82.8372045,60.9327418 83.0876584,60.4709468 C83.3381123,60.0091519 83.6470008,59.5767504 84.0143331,59.1737294 C84.3816655,58.7707084 84.715599,58.5104279 85.0161436,58.3928801 C85.1330221,58.3341062 85.2457247,58.3047196 85.3542547,58.3047196 C85.5212239,58.3047196 85.6047073,58.384483 85.6047073,58.5440122 C85.6047073,58.6867488 85.4753081,58.9764158 85.2165057,59.4130219 C86.936289,59.1443412 88.0215729,59.0100029 88.4723899,59.0100029 C88.6477076,59.0100029 88.7687585,59.0267952 88.8355462,59.0603803 C88.97747,59.1359467 89.0943468,59.3122658 89.1861798,59.5893428 C89.2780129,59.8664197 89.3239288,60.1434925 89.3239288,60.4205695 C89.3239288,60.5968912 89.2467067,60.7879035 89.0922601,60.9936121 C88.9378136,61.1993208 88.6727538,61.499483 88.297073,61.8941077 C87.8546045,62.3726952 87.4831035,62.8932562 87.1825588,63.4558064 C86.8820142,64.0183566 86.7317441,64.442362 86.7317441,64.7278352 C86.7317441,65.1224599 86.9738459,65.3197694 87.4580567,65.3197694 C87.9673129,65.3197694 88.8522367,64.7992083 90.1128546,63.7580707 L90.1128546,64.6018917 C89.4199322,65.3323674 88.8480711,65.9075033 88.3972541,66.3273169 C87.9464371,66.7471305 87.5290202,67.0808773 87.1449909,67.3285673 C86.7609617,67.5762573 86.4186798,67.7001004 86.1181352,67.7001004 C85.7674998,67.7001004 85.4753079,67.5384746 85.241551,67.2152182 C85.007794,66.8919617 84.8909173,66.4238766 84.8909173,65.8109488 C84.8909173,65.4499091 84.982749,65.038498 85.1664152,64.5767031 C85.3500814,64.1149081 85.6193153,63.6132384 85.9741249,63.0716789 C86.3289346,62.5301194 86.7275677,61.9906671 87.1700362,61.4533057 C86.9362793,61.5036833 86.6733066,61.5561592 86.3811104,61.610735 C86.0889143,61.6653108 85.7800258,61.7219847 85.4544357,61.7807586 C85.1288457,61.8395325 84.8783956,61.8857113 84.7030779,61.9192964 C84.1854732,62.9604341 83.4341228,63.9050005 82.4490042,64.7530239 Z M100.018256,64.6270804 L95.8607423,68.0653364 C94.6919575,70.0972341 93.6275445,71.6148374 92.6674713,72.6181918 C91.7073981,73.6215463 90.9936153,74.123216 90.5261014,74.123216 C90.2756475,74.123216 90.1504225,73.9678873 90.1504225,73.6572252 C90.1504225,73.0526937 90.4551368,72.2802483 91.0645745,71.3398659 C91.3066799,70.97043 91.5842622,70.6093957 91.8973295,70.2567523 C92.2103969,69.9041089 92.5067628,69.5997486 92.7864363,69.3436623 C93.0661098,69.0875761 93.4355238,68.7685225 93.8946892,68.3864922 C94.3538546,68.0044618 94.6669173,67.7420823 94.8338865,67.5993457 C95.6687328,65.8865063 96.2698131,64.5767076 96.6371454,63.6699103 C95.85239,64.5095374 95.1678263,65.1980214 94.5834339,65.7353827 C93.9990415,66.2727441 93.4626609,66.6862543 92.9742758,66.9759256 C92.4858907,67.265597 92.0455159,67.4104305 91.6531382,67.4104305 C91.2273666,67.4104305 90.8349948,67.0682876 90.4760109,66.3839915 C90.117027,65.6996953 89.9375377,64.9965181 89.9375377,64.2744388 C89.9375377,63.9385879 90.0147598,63.5859498 90.1692064,63.2165139 C90.323653,62.8470779 90.5657547,62.4524591 90.895519,62.0326455 C91.2252833,61.612832 91.6447872,61.1825295 92.1540435,60.7417252 C92.6632997,60.300921 93.2602058,59.8706185 93.9447797,59.450805 C95.2387914,58.6363666 96.2447661,58.2291536 96.9627339,58.2291536 C97.4970355,58.2291536 97.7641823,58.426463 97.7641823,58.8210878 C97.7641823,59.3668454 97.1839728,59.9000006 96.0235365,60.4205695 C95.3139172,60.7312315 94.6105698,61.1426426 93.9134731,61.6548152 C93.2163765,62.1669878 92.6528637,62.7106382 92.2229179,63.2857828 C91.7929721,63.8609274 91.5780024,64.3793894 91.5780024,64.8411843 C91.5780024,65.0678836 91.6322666,65.2484007 91.7407966,65.3827411 C91.8493266,65.5170814 91.9912484,65.5842506 92.1665661,65.5842506 C92.4587623,65.5842506 92.7926958,65.4499123 93.1683766,65.1812316 C93.5440574,64.9125509 94.0992218,64.4381687 94.8338865,63.7580707 C95.167825,63.4474086 95.612374,62.9457389 96.1675468,62.2530466 C96.7227195,61.5603542 97.1818781,61.031397 97.5450362,60.6661592 C97.9081943,60.3009214 98.2358666,60.1183052 98.5280628,60.1183052 C98.695032,60.1183052 98.8306925,60.1707811 98.9350483,60.2757345 C99.0394041,60.3806879 99.0915812,60.5339176 99.0915812,60.7354281 C99.0915812,61.1216566 98.939224,61.6820993 98.6345051,62.416773 C98.3297862,63.1514468 97.7808831,64.3541946 96.9877791,66.0250526 L100.018256,63.8084481 L100.018256,64.6270804 Z M101.395745,61.5288718 C102.664712,60.3701863 103.896091,59.5095814 105.089922,58.9470312 C106.283752,58.384481 107.206243,58.1032101 107.857423,58.1032101 C108.032741,58.1032101 108.195533,58.1766764 108.345806,58.3236112 C108.496078,58.4705459 108.615042,58.6405679 108.702701,58.8336821 C108.79036,59.0267963 108.834188,59.1695308 108.834188,59.2618898 C108.834188,59.4130227 108.77575,59.5242716 108.658871,59.5956399 C108.541993,59.6670082 108.337459,59.7530687 108.045263,59.853824 C108.103702,59.9881643 108.178837,60.1602853 108.27067,60.3701921 C108.362503,60.5800989 108.433464,60.7501208 108.483555,60.880263 C108.533645,61.0104052 108.55869,61.1258522 108.55869,61.2266075 C108.55869,61.428118 108.356243,61.8038455 107.951343,62.3538013 C107.546442,62.9037571 107.262599,63.3088711 107.099804,63.5691555 C106.937009,63.8294399 106.855613,64.1484935 106.855613,64.5263257 C106.855613,65.1476498 107.139456,65.4583072 107.707151,65.4583072 C108.291544,65.4583072 109.205687,64.9083596 110.449608,63.8084481 L110.449608,64.5767031 C108.337447,66.9360553 106.826398,68.1157138 105.916415,68.1157138 C105.590825,68.1157138 105.359159,68.0086629 105.221409,67.794558 C105.08366,67.5804531 105.014786,67.2634986 105.014786,66.843685 C105.014786,66.1803796 105.252713,65.2190209 105.728576,63.9595802 C104.5097,65.3197762 103.603906,66.2874319 103.011165,66.8625765 C102.418424,67.4377211 101.930046,67.7252891 101.546017,67.7252891 C101.362351,67.7252891 101.132771,67.5657623 100.857272,67.246704 C100.581773,66.9276457 100.337584,66.5141355 100.124698,66.0061611 C99.9118125,65.4981867 99.8053712,64.9713286 99.8053712,64.4255709 C99.8053712,64.0309462 99.8429387,63.7013975 99.9180748,63.4369149 C99.993211,63.1724324 100.139307,62.9016567 100.356367,62.6245797 C100.573427,62.3475027 100.919883,61.9822704 101.395745,61.5288718 Z M107.394086,60.1434939 C105.223485,61.1426502 103.676956,61.9906609 102.754451,62.6875514 C101.831946,63.384442 101.3707,64.1023124 101.3707,64.8411843 C101.3707,65.109865 101.416616,65.3302638 101.508449,65.5023874 C101.600282,65.6745109 101.725507,65.7605714 101.884128,65.7605714 C101.975961,65.7605714 102.138754,65.7017984 102.372511,65.5842506 C103.249099,65.0636818 104.05054,64.385693 104.776856,63.550264 C105.503172,62.714835 106.375573,61.5792563 107.394086,60.1434939 Z M118.777158,61.5036831 C117.307828,63.1493523 116.573174,64.2954261 116.573174,64.941939 C116.573174,65.3029787 116.71927,65.4834958 117.011467,65.4834958 C117.253572,65.4834958 117.568722,65.3554546 117.956925,65.0993683 C118.345129,64.8432821 118.95247,64.3877912 119.778968,63.732882 L119.778968,64.6018917 C118.593486,65.7773697 117.683518,66.6253804 117.049034,67.1459493 C116.414551,67.6665181 115.896954,67.9267986 115.496228,67.9267986 C114.811654,67.9267986 114.469372,67.4734068 114.469372,66.5666094 C114.469372,66.2979288 114.511114,66.0334502 114.594599,65.7731658 C114.678083,65.5128813 114.792873,65.2421056 114.938971,64.9608306 C115.085069,64.6795555 115.308387,64.2765405 115.608932,63.7517735 C115.909476,63.2270065 116.255932,62.6329793 116.64831,61.9696738 C116.172448,62.2131657 115.575542,62.695944 114.857574,63.4180234 C114.39006,63.871422 113.993514,64.3017245 113.667924,64.7089437 C113.342334,65.1161628 112.993791,65.5695547 112.622284,66.0691328 C112.250778,66.568711 111.979457,66.9045568 111.808313,67.0766804 C111.63717,67.2488039 111.463942,67.3348644 111.288624,67.3348644 C111.021473,67.3348644 110.775197,67.0535936 110.549789,66.4910434 C110.32438,65.9284932 110.211678,65.2735938 110.211678,64.5263257 C110.211678,64.0645308 110.263855,63.7034965 110.368211,63.4432121 C110.472566,63.1829277 110.679188,62.8134973 110.988081,62.3349098 C111.564125,61.444905 112.060851,60.7921047 112.478274,60.3764893 C112.895697,59.9608738 113.296417,59.7530692 113.680447,59.7530692 C113.947597,59.7530692 114.162567,59.799248 114.325362,59.891607 C114.488157,59.983966 114.569553,60.1267005 114.569553,60.3198147 C114.569553,60.4037774 114.544508,60.491937 114.494418,60.5842959 C114.444327,60.6766549 114.387976,60.7606164 114.325362,60.8361828 C114.262749,60.9117493 114.131262,61.0586818 113.930899,61.2769849 C112.611842,62.7463324 111.952323,63.6992949 111.952323,64.135901 C111.952323,64.3793929 112.031633,64.501137 112.190253,64.501137 C112.290435,64.501137 112.484534,64.3395112 112.772556,64.0162547 C113.060578,63.6929983 113.432079,63.2689929 113.88707,62.744226 C114.342061,62.219459 114.880529,61.6716105 115.502489,61.1006641 C116.12445,60.5297176 116.831971,59.9797701 117.625075,59.450805 C118.067544,59.1401429 118.434871,58.9848142 118.727067,58.9848142 C118.860642,58.9848142 118.992129,59.1695294 119.12153,59.5389654 C119.250931,59.9084013 119.315631,60.2820298 119.315631,60.659862 C119.315631,60.84458 119.136141,61.1258509 118.777158,61.5036831 Z M124.838111,58.1535875 C124.629399,58.1535875 124.431126,58.0738241 124.243286,57.914295 C124.055446,57.7547658 123.961527,57.5532583 123.961527,57.3097664 C123.961527,56.9403305 124.136842,56.5289194 124.487477,56.0755207 C124.838113,55.6221221 125.201265,55.3954261 125.576946,55.3954261 C125.8274,55.3954261 126.036109,55.4730905 126.203078,55.6284215 C126.370047,55.7837525 126.45353,56.0083494 126.45353,56.3022189 C126.45353,56.6632586 126.28239,57.0620755 125.940103,57.4986816 C125.597816,57.9352877 125.230489,58.1535875 124.838111,58.1535875 Z M125.68965,63.7832594 L125.68965,64.7026465 C124.879849,65.7521804 124.124325,66.5435171 123.423054,67.0766804 C122.721783,67.6098436 122.124877,67.8764212 121.632317,67.8764212 C120.947744,67.8764212 120.438495,67.515387 120.104556,66.7933076 C119.770618,66.0712283 119.603651,65.2819906 119.603651,64.4255709 C119.603651,64.0981163 119.637045,63.7853599 119.703832,63.4872923 C119.77062,63.1892246 119.849929,62.9436374 119.941762,62.7505231 C120.033595,62.5574089 120.204736,62.2551477 120.45519,61.8437304 C121.640672,59.9881544 122.725956,59.0603803 123.711074,59.0603803 C124.22033,59.0603803 124.474955,59.2576897 124.474955,59.6523145 C124.474955,59.9209952 124.310075,60.3408024 123.980311,60.9117489 C123.650547,61.4826954 123.356268,61.8899084 123.097465,62.1334003 C122.371149,62.8386871 121.897381,63.3298616 121.676147,63.6069386 C121.454912,63.8840155 121.344297,64.198871 121.344297,64.5515144 C121.344297,64.8537801 121.456999,65.1056645 121.682408,65.307175 C121.907816,65.5086855 122.200008,65.6094393 122.558992,65.6094393 C122.95137,65.6094393 123.383396,65.4646058 123.855084,65.1749344 C124.326773,64.885263 124.938288,64.421376 125.68965,63.7832594 Z M133.11557,63.8084481 L133.11557,64.6522691 C132.222285,65.5338776 131.493892,66.2181635 130.930371,66.7051472 C130.36685,67.192131 129.840905,67.5699575 129.35252,67.8386382 C128.864135,68.1073189 128.386192,68.2416572 127.918678,68.2416572 C127.459513,68.2416572 127.037922,68.0590411 126.653893,67.6938032 C126.269863,67.3285654 125.969323,66.8499851 125.752263,66.258048 C125.535203,65.6661109 125.426675,65.038499 125.426675,64.3751936 C125.426675,63.8042471 125.5519,63.2962803 125.802354,62.8512779 C126.052808,62.4062755 126.537011,61.8311395 127.254979,61.1258527 C128.106522,60.2862256 128.897527,59.6376234 129.628018,59.1800266 C130.358508,58.7224298 130.932456,58.4936348 131.349879,58.4936348 C131.650424,58.4936348 131.905048,58.5985866 132.11376,58.8084934 C132.322471,59.0184002 132.426826,59.2828788 132.426826,59.6019371 C132.426826,59.8706178 132.289078,60.2526424 132.013579,60.7480224 C131.738079,61.2434024 131.429191,61.6737049 131.086904,62.0389427 C130.744617,62.4041805 130.473296,62.5867967 130.272933,62.5867967 C130.055873,62.5867967 129.947345,62.4692506 129.947345,62.234155 C129.955693,62.1669849 129.961954,62.1040138 129.966129,62.0452399 C129.970303,61.986466 129.97239,61.927693 129.97239,61.8689191 C129.97239,61.7681638 129.936909,61.7114898 129.865947,61.6988954 C129.794986,61.686301 129.709415,61.7177865 129.609234,61.793353 C128.774387,62.381092 128.202526,62.7946022 127.893633,63.0338959 C127.58474,63.2731896 127.340551,63.5145788 127.161059,63.7580707 C126.981567,64.0015626 126.891823,64.257645 126.891823,64.5263257 C126.891823,65.0217057 127.050441,65.4247207 127.367683,65.7353827 C127.684924,66.0460448 128.098167,66.2013735 128.607423,66.2013735 C129.133376,66.2013735 129.765763,65.9977669 130.504602,65.5905478 C131.243441,65.1833286 132.113755,64.5893013 133.11557,63.8084481 Z M141.906457,63.8084481 L141.68105,64.866373 C141.647656,65.0007133 141.63096,65.1518439 141.63096,65.3197694 C141.63096,65.773168 141.818797,65.999864 142.194478,65.999864 C142.553462,65.999864 143.425863,65.2945877 144.811708,63.8840141 C144.820056,63.3382565 145.022504,62.7085456 145.419056,61.9948625 C145.815607,61.2811794 146.253895,60.6556666 146.733932,60.1183052 C147.213968,59.5809438 147.57086,59.3122672 147.804617,59.3122672 C148.171949,59.3122672 148.355613,59.5557554 148.355613,60.0427391 C148.355613,60.3366086 148.284652,60.6955439 148.142728,61.1195556 C148.000804,61.5435673 147.792096,62.0011572 147.516596,62.4923391 C147.241097,62.983521 146.902989,63.4893887 146.502263,64.0099576 C146.710975,64.3877898 146.923857,64.5767031 147.140917,64.5767031 C147.324583,64.5767031 147.527031,64.5116329 147.748265,64.3814907 C147.969499,64.2513485 148.247081,64.0519401 148.58102,63.7832594 L148.58102,64.6270804 C148.113506,64.9965164 147.744092,65.2484007 147.472767,65.3827411 C147.201442,65.5170814 146.852899,65.5842506 146.427127,65.5842506 C146.260158,65.5842506 145.959618,65.4709026 145.525498,65.2442033 C144.673955,66.1510006 143.981043,66.8289894 143.446741,67.2781899 C142.912439,67.7273904 142.478326,67.9519873 142.144387,67.9519873 C141.568344,67.9519873 141.077879,67.6056463 140.672978,66.9129539 C140.268078,66.2202615 140.065631,65.4583113 140.065631,64.6270804 C140.065631,63.5103763 140.691756,62.1711911 141.944025,60.6094846 C142.319706,60.1392934 142.622333,59.8181409 142.851916,59.6460173 C143.081499,59.4738937 143.342384,59.3878332 143.634581,59.3878332 C143.885034,59.3878332 144.122962,59.434012 144.348371,59.526371 C144.573779,59.61873 144.686482,59.7278799 144.686482,59.853824 C144.686482,60.2736376 144.406812,60.8886552 143.847465,61.6988954 C143.288118,62.5091356 142.641122,63.2123128 141.906457,63.8084481 Z M150.559596,64.2366558 L150.559596,64.5515144 C150.559596,65.0468944 150.680647,65.4331171 150.922752,65.710194 C151.164857,65.987271 151.482094,66.1258074 151.874472,66.1258074 C152.283547,66.1258074 152.707225,66.0292517 153.145519,65.8361375 C153.583813,65.6430232 154.020014,65.3869408 154.454134,65.0678825 C154.888254,64.7488242 155.418373,64.3206207 156.044508,63.7832594 L156.044508,64.5515144 C155.101132,65.6934073 154.216208,66.5687055 153.38971,67.1774351 C152.563213,67.7861648 151.724205,68.0905251 150.872661,68.0905251 C150.129648,68.0905251 149.54109,67.8008581 149.10697,67.2215153 C148.67285,66.6421726 148.455794,65.8487369 148.455794,64.8411843 C148.455794,63.9595758 148.660328,63.1598429 149.069403,62.4419617 C149.478477,61.7240805 150.146344,60.9663284 151.073024,60.1686826 C151.707507,59.6229249 152.337806,59.2115138 152.963941,58.9344369 C153.590076,58.6573599 154.149414,58.5188235 154.641973,58.5188235 C155.034351,58.5188235 155.345327,58.6090821 155.574909,58.7896019 C155.804492,58.9701217 155.919282,59.2408974 155.919282,59.6019371 C155.919282,60.1309022 155.723096,60.6577603 155.330718,61.1825273 C154.93834,61.7072943 154.339347,62.2278553 153.533721,62.744226 C152.728094,63.2605967 151.736729,63.7580683 150.559596,64.2366558 Z M150.684822,63.4180234 C151.436184,63.1241539 152.079006,62.7589216 152.613307,62.3223154 C153.147609,61.8857093 153.542068,61.4680011 153.796696,61.0691782 C154.051324,60.6703553 154.178636,60.3785892 154.178636,60.1938713 C154.178636,60.000757 154.090979,59.9042014 153.915661,59.9042014 C153.765389,59.9042014 153.5212,60.000757 153.183087,60.1938713 C152.844974,60.3869855 152.502692,60.6388699 152.156231,60.9495319 C151.80977,61.260194 151.498794,61.6254263 151.223295,62.0452399 C150.947796,62.4650534 150.768307,62.9226434 150.684822,63.4180234 Z M166,64.6270804 L161.842486,68.0653364 C160.673702,70.0972341 159.609289,71.6148374 158.649215,72.6181918 C157.689142,73.6215463 156.975359,74.123216 156.507846,74.123216 C156.257392,74.123216 156.132167,73.9678873 156.132167,73.6572252 C156.132167,73.0526937 156.436881,72.2802483 157.046319,71.3398659 C157.288424,70.97043 157.566006,70.6093957 157.879074,70.2567523 C158.192141,69.9041089 158.488507,69.5997486 158.76818,69.3436623 C159.047854,69.0875761 159.417268,68.7685225 159.876433,68.3864922 C160.335599,68.0044618 160.648661,67.7420823 160.815631,67.5993457 C161.650477,65.8865063 162.251557,64.5767076 162.61889,63.6699103 C161.834134,64.5095374 161.14957,65.1980214 160.565178,65.7353827 C159.980786,66.2727441 159.444405,66.6862543 158.95602,66.9759256 C158.467635,67.265597 158.02726,67.4104305 157.634882,67.4104305 C157.209111,67.4104305 156.816739,67.0682876 156.457755,66.3839915 C156.098771,65.6996953 155.919282,64.9965181 155.919282,64.2744388 C155.919282,63.9385879 155.996504,63.5859498 156.150951,63.2165139 C156.305397,62.8470779 156.547499,62.4524591 156.877263,62.0326455 C157.207027,61.612832 157.626531,61.1825295 158.135788,60.7417252 C158.645044,60.300921 159.24195,59.8706185 159.926524,59.450805 C161.220536,58.6363666 162.22651,58.2291536 162.944478,58.2291536 C163.47878,58.2291536 163.745926,58.426463 163.745926,58.8210878 C163.745926,59.3668454 163.165717,59.9000006 162.005281,60.4205695 C161.295661,60.7312315 160.592314,61.1426426 159.895217,61.6548152 C159.198121,62.1669878 158.634608,62.7106382 158.204662,63.2857828 C157.774716,63.8609274 157.559747,64.3793894 157.559747,64.8411843 C157.559747,65.0678836 157.614011,65.2484007 157.722541,65.3827411 C157.831071,65.5170814 157.972992,65.5842506 158.14831,65.5842506 C158.440506,65.5842506 158.77444,65.4499123 159.150121,65.1812316 C159.525802,64.9125509 160.080966,64.4381687 160.815631,63.7580707 C161.149569,63.4474086 161.594118,62.9457389 162.149291,62.2530466 C162.704464,61.5603542 163.163622,61.031397 163.52678,60.6661592 C163.889938,60.3009214 164.217611,60.1183052 164.509807,60.1183052 C164.676776,60.1183052 164.812437,60.1707811 164.916792,60.2757345 C165.021148,60.3806879 165.073325,60.5339176 165.073325,60.7354281 C165.073325,61.1216566 164.920968,61.6820993 164.616249,62.416773 C164.31153,63.1514468 163.762627,64.3541946 162.969523,66.0250526 L166,63.8084481 L166,64.6270804 Z" id="Healthy-organic-veg" fill="#FFFFFF"></path>
                <path d="M37.9895356,18.7275617 C37.9895356,21.4174282 37.5353666,23.9550382 36.6270288,26.2388872 C35.7186909,28.5227362 34.5075738,30.502072 32.892751,32.1768946 C31.2779281,33.8517172 29.3098628,35.1712743 27.0390182,36.0848139 C24.7681736,36.9983535 22.2954761,37.5058755 19.5199994,37.5058755 C16.7445226,37.5058755 14.221362,36.9983535 11.9505173,36.0848139 C9.67967274,35.1712743 7.71160741,33.8517172 6.09678457,32.1768946 C4.48196174,30.502072 3.2203814,28.5227362 2.31204355,26.2388872 C1.40370571,23.9550382 1,21.4174282 1,18.7275617 C1,16.0376951 1.40370571,13.5508373 2.31204355,11.2669883 C3.2203814,8.98313934 4.48196174,7.00380355 6.09678457,5.32898096 C7.71160741,3.65415837 9.67967274,2.33460118 11.9505173,1.42106159 C14.221362,0.507521996 16.7445226,0 19.5199994,0 C22.2954761,0 24.7681736,0.456769797 27.0390182,1.42106159 C29.3098628,2.38535338 31.2779281,3.65415837 32.892751,5.32898096 C34.5075738,7.00380355 35.7186909,8.98313934 36.6270288,11.2669883 C37.5353666,13.5508373 37.9895356,16.0376951 37.9895356,18.7275617 Z M31.0256121,18.7275617 C31.0256121,16.6974737 30.7228328,14.9718989 30.2182007,13.3478285 C29.7135685,11.7237581 28.9566203,10.4042009 27.9473561,9.28765253 C26.9380918,8.17110414 25.7269747,7.30831675 24.3140047,6.69929035 C22.9010347,6.09026396 21.2862119,5.83650296 19.5199994,5.83650296 C17.7537869,5.83650296 16.0885009,6.09026396 14.6755309,6.69929035 C13.2625609,7.30831675 12.0514438,8.17110414 11.0421795,9.28765253 C10.0329152,10.4042009 9.27596703,11.7237581 8.72087168,13.3478285 C8.16577633,14.9718989 7.91346026,16.6974737 7.91346026,18.7275617 C7.91346026,20.7576497 8.16577633,22.5339766 8.72087168,24.158047 C9.27596703,25.7821174 10.0329152,27.1016746 11.0421795,28.218223 C12.0514438,29.3347714 13.2625609,30.1975588 14.6755309,30.8065852 C16.0885009,31.4156116 17.7537869,31.6693726 19.5199994,31.6693726 C21.2862119,31.6693726 22.9010347,31.4156116 24.3140047,30.8065852 C25.7269747,30.1975588 26.9380918,29.3347714 27.9473561,28.218223 C28.9566203,27.1016746 29.7135685,25.7821174 30.2182007,24.158047 C30.7228328,22.5339766 31.0256121,20.7576497 31.0256121,18.7275617 Z M66.9554202,11.0639795 L66.9554202,14.0583593 C66.9554202,14.9211467 66.5517145,15.4286687 65.6938399,15.6316775 C65.2901342,15.6824297 65.4415238,15.7331819 63.3220688,16.0884473 L54.9956386,37.0998579 L49.3437587,37.0998579 L41.0173284,16.0884473 C38.8474102,15.6824297 39.0492631,15.6824297 38.6455574,15.6316775 C37.7876828,15.4286687 37.383977,14.9211467 37.383977,14.0583593 L37.383977,11.0639795 L49.9997804,11.0639795 L49.9997804,14.0583593 C49.9997804,14.9211467 49.5960747,15.4286687 48.7382001,15.6316775 C48.4354208,15.6824297 48.3344944,15.6824297 47.3252301,15.8854385 L51.0090447,26.1373828 C51.311824,26.949418 51.5136768,27.7614532 51.7155297,28.5227362 C51.9173826,29.2840192 52.1192354,30.0960544 52.2706251,30.8573374 C52.4220147,30.0960544 52.5734043,29.2840192 52.7752572,28.5227362 C52.97711,27.7614532 53.2294261,26.949418 53.5322054,26.1373828 L57.2664832,15.9361907 C56.0049029,15.7331819 55.9039764,15.6824297 55.6011971,15.6316775 C54.7433225,15.4286687 54.3396168,14.9211467 54.3396168,14.0583593 L54.3396168,11.0639795 L66.9554202,11.0639795 Z M78.1077905,10.6579619 C79.7226133,10.6579619 81.2365097,10.9117229 82.5990165,11.4192449 C83.9615232,11.9267669 85.1221771,12.7388021 86.1314414,13.7538461 C87.1407057,14.7688901 87.8976539,15.9869429 88.4527492,17.4587567 C89.0078446,18.9305705 89.3106239,20.5546409 89.3106239,22.4324722 C89.3106239,22.889242 89.2601607,23.3460118 89.2096974,23.650525 C89.1592342,23.9550382 89.108771,24.2087992 89.0078446,24.3610558 C88.9069182,24.5640646 88.7555285,24.665569 88.5536757,24.7670734 C88.3518228,24.8685778 88.14997,24.8685778 87.8471907,24.8685778 L71.850352,24.8685778 C72.0522048,27.5584444 72.7586898,29.487028 74.0202702,30.755833 C75.2818505,32.024638 76.8966733,32.6336644 78.9656651,32.6336644 C79.9749294,32.6336644 80.832804,32.53216 81.539289,32.278399 C82.2962372,32.024638 82.9017957,31.770877 83.4568911,31.4663638 C84.0119864,31.1618506 84.5166186,30.9588418 84.9203243,30.7050808 C85.32403,30.4513198 85.6772725,30.3498154 86.0809782,30.3498154 C86.3332943,30.3498154 86.5856103,30.4005676 86.7874632,30.502072 C86.989316,30.6035764 87.0902425,30.7050808 87.2416321,30.9080896 L89.0583078,33.1919386 C88.3518228,34.0039738 87.5948746,34.7145046 86.737,35.2727787 C85.8791253,35.8310529 84.9707875,36.2878227 84.0624497,36.5923359 C83.1036486,36.8968491 82.1448475,37.0998579 81.1860465,37.2521145 C80.2272454,37.4043711 79.2684444,37.4551233 78.3601065,37.4551233 C76.5434308,37.4551233 74.928608,37.2013623 73.3642484,36.5923359 C71.7998888,35.9833095 70.4878452,35.0697699 69.3271913,33.9024694 C68.1665374,32.7351688 67.2581995,31.263355 66.6021778,29.5377802 C65.946156,27.8122054 65.6433767,25.7821174 65.6433767,23.4982684 C65.6433767,21.7219414 65.946156,20.0978711 66.5012513,18.5245529 C67.0563467,16.9512347 67.9142213,15.5809253 68.9739488,14.4136247 C70.0336763,13.2463241 71.3457198,12.3327845 72.8596162,11.6730059 C74.3735127,11.0132273 76.1901883,10.6579619 78.1077905,10.6579619 Z M78.2087169,15.1241555 C76.3920412,15.1241555 74.9790712,15.6824297 73.9698069,16.6974737 C72.9605427,17.7125177 72.3045209,19.1843315 72.0017416,21.0621628 L83.7092072,21.0621628 C83.7092072,20.2501277 83.5578175,19.4888447 83.3559647,18.7783139 C83.1541118,18.0677831 82.8008693,17.4587567 82.3467004,16.9004825 C81.8925315,16.3422083 81.3374361,15.9361907 80.6309511,15.6316775 C79.9244661,15.3271643 79.1170547,15.1241555 78.2087169,15.1241555 Z M100.109752,10.6072097 C101.219942,10.6072097 102.27967,10.7594663 103.238471,10.9624751 C104.197272,11.1654839 105.10561,11.5207493 105.913021,11.9775191 L113.331114,11.9775191 L113.331114,14.3121203 C113.331114,14.7181379 113.230187,15.0226511 113.028334,15.2256599 C112.826481,15.4286687 112.523702,15.5809253 112.01907,15.6824297 L109.697762,16.0884473 C109.849152,16.5452171 109.950078,17.0019869 110.051005,17.5095089 C110.151931,18.0170309 110.202394,18.4738007 110.202394,19.0320749 C110.202394,20.3008799 109.950078,21.5189326 109.445446,22.5339766 C108.940814,23.5490206 108.234329,24.4625602 107.325991,25.173091 C106.417653,25.8836218 105.307463,26.441896 104.096346,26.8479136 C102.885228,27.2539312 101.573185,27.45694 100.109752,27.45694 C99.1509506,27.45694 98.1416863,27.4061878 97.2333485,27.203179 C96.425937,27.710701 96.0222313,28.218223 96.0222313,28.8272494 C96.0222313,29.3347714 96.2240842,29.740789 96.7287163,29.99455 C97.2333485,30.248311 97.838907,30.4005676 98.6463184,30.502072 C99.4537299,30.6035764 100.311604,30.7050808 101.320869,30.7050808 C102.330133,30.755833 103.288934,30.755833 104.348662,30.8573374 C105.408389,30.9588418 106.417653,31.1110984 107.426918,31.3141072 C108.436182,31.517116 109.243593,31.8723814 110.051005,32.3291512 C110.858416,32.785921 111.463975,33.3441952 111.968607,34.1562304 C112.473239,34.9682655 112.675092,35.9833095 112.675092,37.2013623 C112.675092,38.3686629 112.372313,39.4852113 111.817217,40.5510075 C111.262122,41.6168037 110.45471,42.5810955 109.394983,43.4438829 C108.335255,44.3066703 107.023212,44.9664489 105.458852,45.4739709 C103.894493,45.9814929 102.12828,46.2352539 100.160215,46.2352539 C98.1921495,46.2352539 96.4764003,46.0829973 95.0129671,45.6769797 C93.5495339,45.2709621 92.38888,44.7634401 91.4300789,44.1544137 C90.4712778,43.5453873 89.7647928,42.7841043 89.3106239,41.9720691 C88.856455,41.1600339 88.6041389,40.2972465 88.6041389,39.3837069 C88.6041389,38.1656541 88.9573814,37.0998579 89.7143296,36.2878227 C90.4712778,35.4757875 91.4805421,34.8667611 92.7925857,34.3592392 C92.1365639,34.0039738 91.682395,33.547204 91.2786893,32.9381776 C90.8749835,32.3291512 90.6731307,31.5678682 90.6731307,30.6035764 C90.6731307,30.1975588 90.7235939,29.7915412 90.8749835,29.3855236 C91.0263732,28.979506 91.1777628,28.5734884 91.4805421,28.1674708 C91.7833214,27.7614532 92.1365639,27.3554356 92.5402696,27.0001702 C92.9439753,26.6449048 93.4990707,26.3403916 94.054166,26.0358784 C92.7421224,25.3253476 91.682395,24.3610558 90.9254468,23.1937552 C90.1684986,22.0264546 89.8152561,20.6053931 89.8152561,19.0320749 C89.8152561,17.7632699 90.0675721,16.5452171 90.5722043,15.5301731 C91.0768364,14.5151291 91.8337846,13.6015895 92.7421224,12.8910587 C93.6504603,12.1805279 94.7101878,11.6222537 95.9717681,11.2162361 C97.2333485,10.8102185 98.6463184,10.6072097 100.109752,10.6072097 Z M106.922285,38.2671585 C106.922285,37.7596365 106.770896,37.3536189 106.468117,37.0491057 C106.165337,36.7445925 105.761632,36.4908315 105.256999,36.2878227 C104.752367,36.0848139 104.096346,35.9833095 103.389861,35.8818051 C102.683376,35.7803007 101.976891,35.7295485 101.169479,35.6787963 C100.362068,35.6280441 99.5546563,35.6280441 98.7472449,35.5772919 C97.9398334,35.5265397 97.132422,35.4757875 96.3754738,35.3742831 C95.6689888,35.7803007 95.0634303,36.2370705 94.6597246,36.7445925 C94.2560189,37.2521145 94.0037028,37.8611409 94.0037028,38.5716717 C94.0037028,39.0284415 94.1550924,39.4344591 94.3569453,39.8404767 C94.5587981,40.2464943 94.9120406,40.6017597 95.4166728,40.9062729 C95.9213049,41.2107861 96.5773267,41.4137949 97.3847381,41.5660515 C98.1921495,41.7183081 99.1004874,41.8198125 100.261141,41.8198125 C101.421795,41.8198125 102.431059,41.7183081 103.288934,41.5152993 C104.146809,41.3122905 104.80283,41.1092817 105.357926,40.8047685 C105.913021,40.5002553 106.316727,40.0942377 106.569043,39.6882201 C106.821359,39.2822025 106.922285,38.7746805 106.922285,38.2671585 Z M100.109752,23.4475162 C100.8667,23.4475162 101.573185,23.3460118 102.12828,23.143003 C102.683376,22.9399942 103.188008,22.635481 103.54125,22.2802156 C103.944956,21.9249502 104.197272,21.4174282 104.399125,20.9099062 C104.600978,20.4023843 104.701904,19.7933579 104.701904,19.1843315 C104.701904,17.9155265 104.298198,16.9004825 103.54125,16.1391995 C102.784302,15.3779165 101.623648,15.0226511 100.109752,15.0226511 C98.5958552,15.0226511 97.3847381,15.3779165 96.6277899,16.1391995 C95.8708417,16.9004825 95.5175992,17.9155265 95.5175992,19.1843315 C95.5175992,19.7933579 95.5680624,20.4023843 95.7699153,20.9099062 C95.9717681,21.4174282 96.2240842,21.8234458 96.6277899,22.2294634 C97.0314956,22.635481 97.4856645,22.9399942 98.0912231,23.143003 C98.6967817,23.3460118 99.3528034,23.4475162 100.109752,23.4475162 Z M136.190949,32.4814078 C137.048824,32.6844166 137.45253,33.1919386 137.45253,34.054726 L137.45253,37.0491057 L131.497871,37.0491057 C130.892312,37.0491057 130.438143,36.9983535 130.084901,36.7953447 C129.731658,36.6430881 129.479342,36.2370705 129.327952,35.6787963 L128.772857,33.8517172 C128.116835,34.4607436 127.511277,34.9682655 126.855255,35.4250353 C126.249696,35.8818051 125.543211,36.2370705 124.88719,36.5415837 C124.231168,36.8460969 123.524683,37.0491057 122.767735,37.2013623 C122.010786,37.3536189 121.152912,37.4551233 120.244574,37.4551233 C119.134383,37.4551233 118.125119,37.3028667 117.216781,36.9983535 C116.308443,36.6938403 115.501032,36.2878227 114.84501,35.6787963 C114.188988,35.0697699 113.633893,34.308487 113.28065,33.4456996 C112.927408,32.5829122 112.725555,31.5678682 112.725555,30.4005676 C112.725555,29.4362758 112.977871,28.4212318 113.482503,27.45694 C113.987135,26.4926482 114.84501,25.6298608 116.056127,24.8685778 C117.267244,24.1072948 118.831604,23.4475162 120.799669,22.9399942 C122.767735,22.4324722 125.290895,22.1787112 128.217762,22.1787112 L128.217762,20.6561453 C128.217762,18.8798183 127.814056,17.6110133 127.107571,16.7482259 C126.401086,15.8854385 125.341358,15.4794209 123.928388,15.4794209 C122.919124,15.4794209 122.06125,15.5809253 121.405228,15.8346863 C120.749206,16.0884473 120.143647,16.3422083 119.639015,16.6467215 C119.134383,16.9512347 118.680214,17.1542435 118.276509,17.4080045 C117.872803,17.6617655 117.418634,17.7632699 116.914002,17.7632699 C116.510296,17.7632699 116.10659,17.6617655 115.803811,17.4587567 C115.501032,17.2557479 115.299179,16.9512347 115.097326,16.6467215 L113.936672,14.6673857 C116.914002,11.9267669 120.49689,10.5057053 124.685337,10.5057053 C126.199233,10.5057053 127.56174,10.7594663 128.772857,11.2669883 C129.933511,11.7745103 130.942775,12.4850411 131.750187,13.3478285 C132.557598,14.2613681 133.264083,15.3271643 133.667789,16.5452171 C134.071494,17.7632699 134.273347,19.1335793 134.273347,20.6053931 L134.273347,32.1261424 C134.828443,32.2276468 135.333075,32.3291512 135.635854,32.3799034 C135.938633,32.4306556 136.140486,32.4814078 136.190949,32.4814078 Z M128.217762,30.3498154 L128.217762,25.9851262 C126.401086,25.9851262 124.88719,26.0866306 123.676072,26.3403916 C122.464955,26.5941526 121.455691,26.8986658 120.698743,27.2539312 C119.941795,27.6091966 119.437162,28.0152142 119.134383,28.471984 C118.831604,28.9287538 118.680214,29.487028 118.680214,30.0453022 C118.680214,31.1618506 118.982994,31.9738858 119.639015,32.4306556 C120.295037,32.8874254 121.102449,33.1411864 122.162176,33.1411864 C122.818198,33.1411864 123.373293,33.0904342 123.928388,32.9889298 C124.483484,32.8874254 125.038579,32.6844166 125.492748,32.4306556 C125.946917,32.1768946 126.401086,31.9231336 126.855255,31.5678682 C127.309424,31.2126028 127.763593,30.8065852 128.217762,30.3498154 Z M166.267025,32.53216 C167.124899,32.7351688 167.528605,33.2426908 167.528605,34.1054782 L167.528605,37.0998579 L157.486426,37.0998579 L157.486426,20.5546409 C157.486426,18.9813227 157.08272,17.7125177 156.376235,16.8497303 C155.66975,15.9869429 154.559559,15.5301731 153.096126,15.5301731 C152.036399,15.5301731 151.027134,15.7839341 150.068333,16.2914561 C149.109532,16.7989781 148.251657,17.4080045 147.393783,18.2707919 L147.393783,32.0753902 C147.999341,32.1768946 148.503974,32.278399 148.857216,32.3291512 C149.210459,32.3799034 149.462775,32.4306556 149.614164,32.4814078 C149.765554,32.53216 149.86648,32.53216 149.916944,32.53216 C150.774818,32.7351688 151.178524,33.2426908 151.178524,34.1054782 L151.178524,37.0998579 L137.351603,37.0998579 L137.351603,34.1054782 C137.351603,33.2426908 137.755309,32.7351688 138.613184,32.53216 C138.663647,32.53216 138.764573,32.4814078 138.915963,32.4814078 C139.067353,32.4306556 139.319669,32.3799034 139.672911,32.3291512 C140.026154,32.278399 140.530786,32.1768946 141.136344,32.0753902 L141.136344,16.0884473 C140.530786,15.9869429 140.026154,15.8854385 139.672911,15.8346863 C139.319669,15.7839341 139.067353,15.6824297 138.915963,15.6824297 C138.764573,15.6316775 138.663647,15.6316775 138.613184,15.6316775 C137.755309,15.4286687 137.351603,14.9211467 137.351603,14.0583593 L137.351603,11.0639795 L144.971549,11.0639795 C145.77896,11.0639795 146.283592,11.4699971 146.535908,12.2312801 L146.990077,14.2613681 C147.494709,13.7030939 147.999341,13.2463241 148.6049,12.7895543 C149.159995,12.3327845 149.816017,11.9775191 150.472039,11.6730059 C151.128061,11.3684927 151.784082,11.0639795 152.541031,10.9117229 C153.297979,10.7594663 154.10539,10.6579619 154.963265,10.6579619 C156.376235,10.6579619 157.637815,10.8609707 158.748006,11.3684927 C159.858197,11.8252625 160.716071,12.5357933 161.473019,13.3985807 C162.179504,14.2613681 162.7346,15.3271643 163.138305,16.5452171 C163.542011,17.7632699 163.693401,19.0828271 163.693401,20.5546409 L163.693401,32.0753902 C164.298959,32.1768946 164.854055,32.278399 165.207297,32.3291512 C165.56054,32.3799034 165.812856,32.4814078 165.964245,32.4814078 C166.115635,32.4814078 166.216562,32.53216 166.267025,32.53216 Z" id="Ovegan" fill="url(#linearGradient-1)"></path>
            </g>
        </g>
    </g>
</svg>