
<svg width="108px" height="47px" viewBox="0 0 108 47" version="1.1" xmlns="http://www.w3.org/2000/svg" xmlns:xlink="http://www.w3.org/1999/xlink">
    <!-- Generator: Sketch 43.2 (39069) - http://www.bohemiancoding.com/sketch -->
    <desc>Created with Sketch.</desc>
    <defs>
        <linearGradient x1="4.34512868%" y1="31.7255499%" x2="77.34375%" y2="50%" id="linearGradient-1">
            <stop stop-color="#0E91E3" offset="0%"></stop>
            <stop stop-color="#14A84B" offset="100%"></stop>
        </linearGradient>
    </defs>
    <g id="Page-1" stroke="none" stroke-width="1" fill="none" fill-rule="evenodd">
        <g id="sign-in" transform="translate(-106.000000, -78.000000)">
            <g id="Group" transform="translate(106.000000, 78.000000)">
                <path d="M2.78636089,35.854309 L1.03470127,36.7675306 C0.763124774,36.9022247 0.581171252,36.9695708 0.488835244,36.9695708 C0.320457818,36.9695708 0.196892367,36.9170408 0.118135184,36.8119794 C0.0393780009,36.706918 0,36.5439406 0,36.3230422 C0,36.0698173 0.054314484,35.7775354 0.162945081,35.4461879 C0.271575679,35.1148404 0.396498992,34.8710477 0.537718769,34.7148025 C0.684370075,34.5531696 1.02790919,34.3309276 1.56834641,34.04807 C2.10878363,33.7652123 2.75919958,33.481012 3.51961376,33.1954605 C4.28002794,32.909909 5.07301941,32.6728509 5.89861195,32.4842791 C6.72420449,32.2957073 7.47917582,32.2014229 8.16354858,32.2014229 C8.64152321,32.2014229 8.99456736,32.2768505 9.22269161,32.4277079 C9.45081587,32.5785653 9.56487628,32.9772539 9.56487628,33.6237856 C9.56487628,33.9739903 9.44402656,34.3632505 9.20232348,34.7915778 C8.9606204,35.2199051 8.67003791,35.6361036 8.33056729,36.040186 C7.99109667,36.4442683 7.36240652,37.1608303 6.44447797,38.1898933 C6.93331566,38.1144646 7.29179126,38.0659755 7.51991551,38.0444244 C7.74803976,38.0228734 8.17440846,37.9770781 8.7990344,37.9070371 C9.52142787,36.8725863 10.1053086,36.0469238 10.550694,35.4300247 C10.9960795,34.8131256 11.3735651,34.3012957 11.6831623,33.8945195 C11.9927595,33.4877432 12.1774288,33.2547259 12.2371756,33.1954605 C12.3458062,33.0715419 12.436783,33.0243997 12.5101086,33.0540324 C12.5834343,33.0836651 12.6200966,33.1954595 12.6200966,33.389419 C12.6200966,33.6103174 12.5970129,33.7908048 12.5508449,33.9308867 C12.5046769,34.0709686 12.4327102,34.2097014 12.3349427,34.3470894 C12.2371751,34.4844774 12.1855764,34.5585581 12.1801448,34.5693336 C12.0389251,34.8010075 11.8352457,35.1040647 11.5691008,35.4785143 C11.3029558,35.852964 11.0422463,36.2233672 10.7869644,36.5897352 C10.5316825,36.9561032 10.2411,37.3898118 9.91520821,37.8908739 C10.5235396,37.912425 11.1237146,37.9905464 11.7157514,38.1252405 L10.2492456,40.0971525 C9.84731241,40.0432748 9.31231475,40.0163364 8.64423657,40.0163364 C8.48129068,40.3396023 8.3550095,40.5928234 8.26538926,40.7760074 C8.17576901,40.9591914 8.09972874,41.1329442 8.03726614,41.2972711 C7.97480355,41.4615979 7.94357272,41.6138 7.94357272,41.7538818 C7.94357272,41.8400861 7.9693721,41.9545744 8.02097164,42.0973501 C8.07257117,42.2401259 8.09837055,42.3222881 8.09837055,42.3438391 C8.09837055,42.4515944 8.01825669,42.5660827 7.85802655,42.6873074 C7.69779642,42.8085321 7.51041145,42.9149389 7.29586602,43.0065309 C7.08132059,43.0981229 6.91430355,43.1439182 6.7948099,43.1439182 C6.59384329,43.1439182 6.4933615,42.993063 6.4933615,42.6913482 C6.4933615,42.0663675 6.81653268,41.1962566 7.46288473,40.0809893 C6.60470301,40.1510302 5.61889513,40.2776408 4.5054315,40.4608248 C4.18497124,40.8810704 3.89438875,41.279759 3.63367532,41.6569026 C3.37296188,42.0340461 3.15977753,42.3519194 2.99411587,42.6105321 C2.82845421,42.8691448 2.70624662,43.0415507 2.62748944,43.127755 C2.54873226,43.2139592 2.46318694,43.2570607 2.37085094,43.2570607 C2.21333657,43.2570607 2.08026608,43.1897146 1.97163549,43.0550205 C1.92275172,43.0011428 1.89152089,42.947266 1.87794206,42.8933884 C1.86436324,42.8395107 1.85757393,42.7802462 1.85757393,42.715593 L1.85757393,42.5458793 C1.85757393,42.4812261 1.89287834,42.3869416 1.96348823,42.263023 C2.03409812,42.1391045 2.20247302,41.8926179 2.46861798,41.523556 C2.73476295,41.1544942 2.93029509,40.8756815 3.05522028,40.6871098 C2.9140005,40.7032731 2.73204698,40.7113546 2.50935425,40.7113546 C2.2269147,40.7113546 1.99743601,40.6601716 1.82091129,40.5578041 C1.64438656,40.4554365 1.55612553,40.328826 1.55612553,40.1779686 C1.55612553,40.0055601 1.60229284,39.8210319 1.69462885,39.6243785 C1.78696486,39.4277251 1.90645672,39.2634007 2.05310803,39.1314005 C2.19975933,38.9994003 2.34640844,38.9334011 2.49305975,38.9334011 C2.59082728,38.9334011 2.70760342,38.9630334 2.84339167,39.0222988 L4.94538322,38.505076 C6.11859368,37.2443391 6.99305687,36.2476176 7.56879903,35.5148816 C8.1445412,34.7821456 8.43240797,34.3107232 8.43240797,34.1006004 C8.43240797,33.9820696 8.39981928,33.8837444 8.33464092,33.8056218 C8.26946256,33.7274992 8.1784858,33.6668878 8.06170791,33.6237856 C7.94493001,33.5806835 7.81050167,33.5591328 7.65841883,33.5591328 C7.47917834,33.5591328 7.19538516,33.6076219 6.80703078,33.7046017 C6.41867639,33.8015815 5.95564542,33.9443551 5.41792396,34.1329268 C4.8802025,34.3214986 4.20941862,34.5828013 3.4055522,34.9168427 C2.80808392,35.1592921 2.50935425,35.3128411 2.50935425,35.3774943 C2.50935425,35.452923 2.55009012,35.5014121 2.63156307,35.5229632 C2.71303601,35.5445142 2.8175914,35.5606773 2.94523235,35.5714528 C3.0728733,35.5822283 3.13669282,35.6010852 3.13669282,35.6280241 C3.13669282,35.6495751 3.10546199,35.6792074 3.0429994,35.7169217 C2.9805368,35.7546361 2.89499149,35.8004314 2.78636089,35.854309 Z M13.1333736,40.6951914 L13.1333736,40.8972315 C13.1333736,41.2151097 13.2121296,41.4629431 13.3696439,41.6407393 C13.5271583,41.8185356 13.7335533,41.9074324 13.9888352,41.9074324 C14.2549802,41.9074324 14.5306262,41.845474 14.8157815,41.7215554 C15.1009369,41.5976368 15.38473,41.4333125 15.6671696,41.2285774 C15.9496091,41.0238424 16.2945061,40.7490705 16.7018709,40.4042535 L16.7018709,40.8972315 C16.088108,41.6299675 15.5123744,42.1916336 14.974653,42.5822465 C14.4369315,42.9728594 13.891071,43.168163 13.3370549,43.168163 C12.8536488,43.168163 12.4707316,42.9822879 12.1882921,42.6105321 C11.9058525,42.2387764 11.7646349,41.7296402 11.7646349,41.0831085 C11.7646349,40.5173932 11.8977054,40.0042163 12.1638503,39.5435624 C12.4299953,39.0829086 12.8645112,38.5966701 13.467411,38.0848325 C13.8802073,37.7346278 14.2902816,37.4706312 14.6976463,37.292835 C15.1050111,37.1150388 15.4689181,37.026142 15.7893784,37.026142 C16.0446603,37.026142 16.2469818,37.0840596 16.3963488,37.1998965 C16.5457159,37.3157335 16.6203983,37.4894863 16.6203983,37.7211602 C16.6203983,38.0605893 16.4927593,38.3986665 16.2374774,38.7354018 C15.9821955,39.0721371 15.592489,39.4061735 15.0683464,39.737521 C14.5442038,40.0688685 13.8992193,40.3880888 13.1333736,40.6951914 Z M13.2148461,40.1698869 C13.7036838,39.9813152 14.1219053,39.7469509 14.4695232,39.4667872 C14.8171411,39.1866234 15.0737771,38.9185861 15.2394387,38.6626673 C15.4051004,38.4067485 15.48793,38.2195265 15.48793,38.1009957 C15.48793,37.9770771 15.4308998,37.9151187 15.3168377,37.9151187 C15.2190701,37.9151187 15.0602003,37.9770771 14.8402233,38.1009957 C14.6202463,38.2249143 14.397557,38.3865448 14.1721485,38.5858921 C13.94674,38.7852394 13.7444185,39.0196036 13.565178,39.2889918 C13.3859375,39.5583801 13.2691614,39.8520088 13.2148461,40.1698869 Z M17.6550996,38.957646 C18.4806921,38.2141344 19.2818308,37.6618969 20.0585395,37.3009166 C20.8352483,36.9399364 21.4354233,36.759449 21.8590827,36.759449 C21.9731448,36.759449 22.0790581,36.8065912 22.1768256,36.9008771 C22.2745931,36.995163 22.3519913,37.1042636 22.4090223,37.2281822 C22.4660534,37.3521007 22.4945685,37.4436914 22.4945685,37.5029568 C22.4945685,37.5999365 22.4565484,37.6713234 22.3805069,37.7171194 C22.3044655,37.7629154 22.171395,37.8181391 21.9812915,37.8827923 C22.0193122,37.9689965 22.0681952,38.079444 22.1279421,38.2141382 C22.1876889,38.3488323 22.2338562,38.4579329 22.2664454,38.5414432 C22.2990346,38.6249536 22.3153289,38.6990342 22.3153289,38.7636874 C22.3153289,38.8929938 22.1836163,39.1340926 21.9201871,39.4869912 C21.6567579,39.8398898 21.4720886,40.0998455 21.3661738,40.2668662 C21.260259,40.4338869 21.2073024,40.6386189 21.2073024,40.8810683 C21.2073024,41.2797629 21.3919716,41.4791072 21.7613156,41.4791072 C22.1415227,41.4791072 22.7362663,41.1262139 23.5455643,40.4204168 L23.5455643,40.9133948 C22.1713872,42.4273566 21.1882951,43.1843262 20.5962583,43.1843262 C20.3844286,43.1843262 20.2337059,43.1156332 20.1440857,42.9782452 C20.0544655,42.8408572 20.009656,42.6374722 20.009656,42.3680839 C20.009656,41.9424505 20.1644523,41.3255607 20.4740495,40.517396 C19.6810461,41.3902139 19.091734,42.0111445 18.7060954,42.3802063 C18.3204567,42.7492682 18.002717,42.9337964 17.7528666,42.9337964 C17.633373,42.9337964 17.4840081,42.8314304 17.3047677,42.6266953 C17.1255272,42.4219603 16.9666573,42.1566169 16.8281533,41.8306571 C16.6896493,41.5046973 16.6203983,41.1666202 16.6203983,40.8164155 C16.6203983,40.5631905 16.6448398,40.3517239 16.6937236,40.1820094 C16.7426074,40.0122948 16.8376577,39.838542 16.9788775,39.6607457 C17.1200973,39.4829495 17.3455024,39.2485853 17.6550996,38.957646 Z M21.5576343,38.0686692 C20.1454365,38.7098132 19.1392607,39.2539693 18.5390766,39.7011538 C17.9388926,40.1483382 17.6388051,40.6089852 17.6388051,41.0831085 C17.6388051,41.255517 17.668678,41.3969437 17.7284249,41.5073928 C17.7881717,41.617842 17.8696434,41.6730658 17.9728425,41.6730658 C18.0325893,41.6730658 18.1385026,41.635352 18.2905854,41.5599233 C18.860896,41.2258819 19.3823151,40.7908264 19.8548582,40.2547438 C20.3274013,39.7186612 20.8949876,38.989977 21.5576343,38.0686692 Z M27.3666264,40.3153559 L27.3666264,40.9133948 C26.2314367,42.4058056 25.3080905,43.1519998 24.59656,43.1519998 C24.2109214,43.1519998 23.9081182,42.943227 23.6881412,42.5256753 C23.4681643,42.1081235 23.3581774,41.5599267 23.3581774,40.8810683 C23.3581774,40.3315163 23.4885322,39.6782597 23.7492456,38.9212787 C24.0099591,38.1642978 24.3589296,37.3965529 24.7961678,36.6180209 C25.2334059,35.8394889 25.6869319,35.1606407 26.1567592,34.581456 C26.6265865,34.0022713 27.0624603,33.5968481 27.4643935,33.3651742 C27.6273394,33.2681945 27.7549784,33.2197053 27.8473144,33.2197053 C27.9613766,33.2197053 28.0374168,33.2695414 28.0754375,33.369215 C28.1134582,33.4688887 28.1324683,33.6399476 28.1324683,33.882397 C28.1324683,34.6312963 27.8255915,35.5512433 27.2118286,36.6422657 C26.5980657,37.733288 25.7426126,38.8471917 24.6454436,39.98401 C24.5911283,40.2641738 24.563971,40.4796811 24.563971,40.6305385 C24.563971,40.9753555 24.6386534,41.255515 24.7880205,41.4710256 C24.9373876,41.6865362 25.1451405,41.7942899 25.4112855,41.7942899 C25.5470737,41.7942899 25.6937228,41.74176 25.8512372,41.6366985 C26.0087515,41.5316371 26.1744107,41.4009858 26.3482197,41.2447406 C26.5220286,41.0884954 26.8614942,40.7787036 27.3666264,40.3153559 Z M24.9305975,38.8606667 C25.213037,38.5858907 25.4859673,38.273405 25.7493965,37.9232003 C26.0128257,37.5729956 26.2613145,37.1985516 26.4948702,36.799857 C26.728426,36.4011624 26.9117374,36.0428815 27.0448099,35.7250033 C27.1778824,35.4071252 27.2444176,35.1673733 27.2444176,35.0057404 C27.2444176,34.8818218 27.200966,34.8198634 27.1140616,34.8198634 C27.0814724,34.8198634 27.0190107,34.8494957 26.9266747,34.9087611 C26.5953514,35.1781493 26.2232972,35.7047954 25.8105009,36.4887152 C25.3977046,37.2726349 25.1044064,38.0632775 24.9305975,38.8606667 Z M30.1529873,36.2098997 L30.5033193,36.2098997 C30.7911903,35.6980621 31.0518999,35.3357404 31.2854556,35.1229237 C31.5190114,34.9101069 31.7851524,34.8037002 32.0838865,34.8037002 C32.3826207,34.8037002 32.5319855,34.8710462 32.5319855,35.0057404 C32.5319855,35.0703935 32.4152094,35.2454933 32.1816536,35.5310448 C31.9480978,35.8165963 31.7715757,36.0563482 31.6520821,36.2503078 C31.8367541,36.2718588 32.0010554,36.2907157 32.1449909,36.306879 C32.2889265,36.3230423 32.401629,36.3365115 32.483102,36.347287 C32.1735048,36.9183901 31.7851562,37.5029538 31.3180447,38.1009957 C31.1659618,38.0902201 31.0383228,38.0807917 30.9351237,38.07271 C30.8319246,38.0646284 30.7273693,38.0565469 30.6214544,38.0484652 C30.5155396,38.0403836 30.3865427,38.0309551 30.2344599,38.0201796 C29.9411573,38.4889151 29.6953842,38.9078075 29.4971334,39.2768694 C29.2988825,39.6459313 29.146802,39.9840085 29.0408871,40.291111 C28.9349723,40.5982136 28.8820157,40.8891486 28.8820157,41.1639246 C28.8820157,41.5356803 29.0313805,41.7215554 29.3301147,41.7215554 C29.5365128,41.7215554 29.8067274,41.6124548 30.1407664,41.3942503 C30.4748055,41.1760459 30.9215422,40.8406626 31.4809897,40.3880903 L31.4809897,40.929558 C30.0144767,42.508173 28.9309027,43.2974687 28.2302354,43.2974687 C27.9858165,43.2974687 27.7889265,43.2031842 27.6395594,43.0146125 C27.4901924,42.8260407 27.41551,42.5835949 27.41551,42.2872679 C27.41551,42.0879206 27.4576037,41.8508625 27.5417924,41.5760865 C27.6259811,41.3013105 27.7767038,40.8864588 27.993965,40.3315191 C27.9179236,40.3961723 27.8459569,40.4594775 27.7780628,40.5214368 C27.7101686,40.5833961 27.647707,40.6399668 27.5906759,40.6911506 C27.5336449,40.7423343 27.4725411,40.7962112 27.4073627,40.8527827 C27.3421843,40.9093542 27.277007,40.9672718 27.2118286,41.0265372 L27.2118286,40.4689064 C27.7821392,39.9947831 28.4719332,39.162386 29.2812311,37.97169 C29.1997582,37.9663022 29.1237179,37.9622614 29.053108,37.9595676 C28.9824981,37.9568737 28.8983107,37.9555268 28.8005432,37.9555268 C28.4800829,37.9555268 28.2410992,37.9770775 28.0835848,38.0201796 C28.0184064,38.0363429 27.9573026,38.0538529 27.9002716,38.07271 C27.8432405,38.0915672 27.8038625,38.1009957 27.7821364,38.1009957 C27.7604103,38.1009957 27.7495474,38.0848326 27.7495474,38.052506 C27.7495474,37.8747098 27.8608921,37.6080194 28.0835848,37.252427 C28.2628253,36.9507122 28.432558,36.7271233 28.5927882,36.5816536 C28.7530183,36.436184 28.9485504,36.3378588 29.1793905,36.286675 C29.4102305,36.2354912 29.7347595,36.2098997 30.1529873,36.2098997 Z M37.5588413,40.4042535 L37.5588413,40.9133948 C37.0862982,41.3929058 36.6775817,41.7848598 36.3326795,42.0892685 C35.9877774,42.3936772 35.686332,42.6240007 35.4283343,42.7802459 C35.1703367,42.936491 34.9517209,43.0146125 34.7724804,43.0146125 C34.3488211,43.0146125 34.1369946,42.766779 34.1369946,42.2711047 C34.1369946,41.8724101 34.2687072,41.4104162 34.5321364,40.8851091 C34.7955656,40.3598021 35.1744091,39.7415654 35.6686783,39.0303804 C35.4242595,39.1650745 35.1934229,39.3199705 34.9761617,39.4950728 C34.7589005,39.6701752 34.5660841,39.8533564 34.3977067,40.044622 C34.2293293,40.2358877 34.0881116,40.3988651 33.9740495,40.5335592 C33.621,40.9268661 33.2815345,41.3295954 32.9556427,41.7417594 C32.6297509,42.1539234 32.4097773,42.4219607 32.2957151,42.5458793 C32.181653,42.6697979 32.0730241,42.7317562 31.969825,42.7317562 C31.5461657,42.7317562 31.3343392,42.2145386 31.3343392,41.1800878 C31.3343392,40.8406586 31.3859379,40.4662146 31.489137,40.0567445 C31.5923361,39.6472743 31.8693399,39.1058121 32.3201569,38.4323415 C33.2706746,37.0207472 34.084034,35.8664359 34.7602595,34.9693731 C35.436485,34.0723103 35.997282,33.3934622 36.4426675,32.9328083 C36.8880529,32.4721544 37.1867826,32.2472186 37.3388654,32.2579941 C37.528969,32.2741574 37.6824074,32.3118712 37.7991853,32.3711366 C37.9159632,32.430402 37.9743512,32.4977481 37.9743512,32.5731768 C37.9743512,32.7078709 37.8806588,32.9301129 37.693271,33.2399093 C37.5058832,33.5497058 37.1840699,34.0332504 36.7278214,34.6905577 C36.2335521,35.3855793 35.8832237,35.8745116 35.6768256,36.1573693 C35.4704275,36.4402269 35.1621928,36.8416094 34.7521123,37.3615287 C34.3420317,37.881448 33.9672618,38.3447888 33.6277912,38.751565 C33.2883206,39.1583412 32.9013299,39.5987844 32.4668075,40.0729077 L32.4668075,41.0427005 C33.1946325,40.2399235 33.8246805,39.5826261 34.3569704,39.0707885 C34.8892604,38.5589508 35.3400706,38.1723845 35.7094146,37.9110779 C36.0787586,37.6497713 36.3503311,37.51912 36.52414,37.51912 C36.6870859,37.51912 36.8391665,37.6147514 36.9803862,37.806017 C37.121606,37.9972827 37.1922148,38.1548724 37.1922148,38.278791 C37.1922148,38.3326687 37.1650576,38.4000147 37.1107423,38.4808312 C36.7196722,38.9441789 36.4087217,39.3280514 36.1778817,39.6324601 C35.9470417,39.9368688 35.7691618,40.2089468 35.6442366,40.4487024 C35.5193114,40.6884579 35.4568497,40.8945368 35.4568497,41.0669453 C35.4568497,41.3201702 35.5790573,41.4467808 35.8234762,41.4467808 C36.0841896,41.4467808 36.6626389,41.0992752 37.5588413,40.4042535 Z M41.3147254,40.7194362 L39.8645142,41.9397588 C39.1747099,42.5378007 38.7130368,42.8368171 38.479481,42.8368171 C38.2676513,42.8368171 38.0449619,42.5957183 37.8114062,42.1135133 C37.5778504,41.6313084 37.4610742,41.2097221 37.4610742,40.8487419 C37.4610742,40.5416393 37.5085994,40.2816836 37.6036512,40.0688669 C37.6987029,39.8560502 37.8630043,39.5799314 38.09656,39.2405022 C38.4278834,38.7825422 38.7456231,38.394629 39.0497888,38.0767508 C39.3539544,37.7588727 39.6228111,37.5123862 39.8563669,37.3372838 C40.0899227,37.1621815 40.2528662,37.0746316 40.3452022,37.0746316 C40.4918535,37.0746316 40.634429,37.1500592 40.772933,37.3009166 C40.911437,37.451774 40.980688,37.6080169 40.980688,37.7696498 C40.980688,37.8720173 40.9060056,38.0363417 40.7566385,38.2626278 C40.6072714,38.4889139 40.3710034,38.7758081 40.0478274,39.1233189 C39.7246514,39.4708297 39.275199,39.8870283 38.6994568,40.3719271 L38.544659,40.8164155 C38.5012068,40.9026197 38.479481,40.9780473 38.479481,41.0427005 C38.479481,41.1881701 38.5528055,41.2609038 38.6994568,41.2609038 C38.8515397,41.2609038 39.2086574,41.0696411 39.7708208,40.6871098 C40.3329841,40.3045785 40.9426642,39.7900547 41.5998793,39.1435229 C41.8551612,38.890298 42.0669877,38.6667091 42.2353651,38.4727496 C42.4037425,38.27879 42.5558231,38.0969557 42.6916113,37.9272411 C42.8273996,37.7575265 42.9401021,37.6295691 43.0297224,37.5433648 C43.1193426,37.4571606 43.1994565,37.4113653 43.2700664,37.4059775 C43.4058546,37.3898142 43.5117679,37.4463849 43.5878093,37.5756912 C43.6638507,37.7049976 43.7018709,37.8962604 43.7018709,38.1494853 C43.7018709,38.294955 43.6366935,38.4767893 43.5063368,38.6949938 C43.37598,38.9131982 43.1315649,39.2849484 42.7730839,39.8102555 C42.4146029,40.3355625 42.0574852,40.8797186 41.70172,41.44274 C41.3459548,42.0057614 40.9834056,42.6401612 40.6140616,43.3459583 C40.6303561,43.329795 40.7973732,43.1681645 41.1151177,42.8610619 C41.4328622,42.5539593 41.7682541,42.2333922 42.1213036,41.8993508 C42.474353,41.5653093 42.7649355,41.2972721 42.9930597,41.0952309 C43.221184,40.8931897 43.506335,40.6574786 43.8485214,40.3880903 L43.8485214,40.929558 C43.1152649,41.7107838 42.4512703,42.4515904 41.8565178,43.1519998 C41.2617653,43.8524092 40.8028079,44.4127283 40.4796319,44.8329739 C40.1564558,45.2532196 39.967713,45.4983592 39.9133977,45.5684001 C39.7667464,45.7569719 39.6350338,45.9334185 39.5182559,46.0977454 C39.401478,46.2620722 39.3037119,46.3886828 39.2249547,46.4775809 C39.1461976,46.566479 39.082378,46.6109274 39.0334943,46.6109274 C38.9194321,46.6109274 38.8175925,46.4991329 38.7279722,46.2755407 C38.638352,46.0519485 38.5935425,45.8539511 38.5935425,45.6815426 C38.5935425,45.5252974 38.6234155,45.3879115 38.6831623,45.2693807 C39.0742325,44.3965628 39.9514114,42.8799298 41.3147254,40.7194362 Z M53.7392879,40.3880903 L53.7392879,40.929558 C53.3808069,41.2528238 53.0929401,41.4683312 52.8756789,41.5760865 C52.6584177,41.6838418 52.3461095,41.7269433 51.9387447,41.7053922 C51.2326458,42.535108 50.610745,42.9499596 50.0730235,42.9499596 C49.7688579,42.9499596 49.491854,42.8502875 49.2420036,42.6509402 C48.9921532,42.4515929 48.7925475,42.1795148 48.6431804,41.8346979 C48.4938134,41.489881 48.419131,41.1046616 48.419131,40.6790282 C48.419131,40.3342112 48.5345492,39.9516857 48.7653893,39.53144 C48.9962293,39.1111944 49.2949589,38.7192404 49.6615872,38.3555663 C50.0282155,37.9918922 50.4206376,37.6982634 50.8388654,37.4746712 C51.2570932,37.2510789 51.6454418,37.1392845 52.0039228,37.1392845 C52.2592047,37.1392845 52.4601682,37.1783452 52.6068196,37.2564678 C52.7534709,37.3345904 52.8267954,37.443691 52.8267954,37.5837728 C52.8267954,37.6915281 52.7643338,37.8154449 52.6394086,37.9555268 C52.8458067,37.9986289 52.9870244,38.0700157 53.0630658,38.1696893 C53.1391072,38.269363 53.1771273,38.4511973 53.1771273,38.7151978 C53.1771273,38.9738105 53.1160235,39.2997653 52.9938141,39.6930722 C52.8716047,40.086379 52.7045877,40.4554353 52.492758,40.8002523 L52.6394086,40.9457212 L52.7616174,40.9457212 C52.8539534,40.9457212 52.9449301,40.9228235 53.0345504,40.8770275 C53.1241706,40.8312315 53.2042845,40.7827424 53.2748944,40.7315586 C53.3455043,40.6803748 53.5003006,40.5658866 53.7392879,40.3880903 Z M52.0609535,38.2626278 C51.6101366,38.532016 51.2245037,38.7758087 50.9040435,38.9940132 C50.5835832,39.2122177 50.3120108,39.4331127 50.089318,39.6567049 C49.8666253,39.8802972 49.7172605,40.105233 49.6412191,40.3315191 C49.5054308,40.9349487 49.4375377,41.2609036 49.4375377,41.3093935 C49.4375377,41.6649859 49.6873843,41.8427795 50.1870851,41.8427795 C50.4206409,41.8427795 50.8117052,41.6434352 51.3602897,41.2447406 C51.2679537,40.9915157 51.2217864,40.7490699 51.2217864,40.517396 C51.2217864,40.1779669 51.2923952,39.8318082 51.433615,39.4789096 C51.5748347,39.126011 51.7839455,38.7205878 52.0609535,38.2626278 Z M53.6415208,41.0265372 L53.6415208,40.5012328 C53.9348234,40.1564159 54.1575128,39.8627871 54.3095957,39.6203377 C54.1357867,39.5610723 54.0095055,39.4883386 53.9307483,39.4021343 C53.8519912,39.3159301 53.8126132,39.1866257 53.8126132,39.0142172 C53.8126132,38.8202577 53.8940849,38.5751181 54.0570308,38.278791 C54.2199767,37.982464 54.4209403,37.7049982 54.6599276,37.4463855 C54.8989149,37.1877728 55.1161728,37.0207546 55.3117079,36.9453259 C55.3877493,36.9076116 55.4610739,36.8887547 55.5316838,36.8887547 C55.6403144,36.8887547 55.6946288,36.9399377 55.6946288,37.0423052 C55.6946288,37.1338972 55.6104414,37.3197723 55.442064,37.5999361 C56.5609591,37.4275276 57.2670474,37.3413247 57.56035,37.3413247 C57.6744122,37.3413247 57.7531682,37.3521 57.7966204,37.3736511 C57.8889564,37.422141 57.9649967,37.5352823 58.0247435,37.7130786 C58.0844903,37.8908748 58.1143633,38.0686684 58.1143633,38.2464646 C58.1143633,38.3596076 58.0641224,38.4821775 57.9636391,38.6141777 C57.8631558,38.7461779 57.6907073,38.9387876 57.4462885,39.1920126 C57.1584174,39.4991151 56.9167179,39.8331515 56.7211829,40.1941318 C56.5256478,40.555112 56.4278817,40.82719 56.4278817,41.010374 C56.4278817,41.263599 56.5853937,41.3902095 56.9004225,41.3902095 C57.2317458,41.3902095 57.8074793,41.0561731 58.6276403,40.3880903 L58.6276403,40.929558 C58.1768233,41.3982935 57.8047691,41.7673498 57.5114665,42.0367381 C57.2181639,42.3061263 56.9465915,42.5202867 56.6967411,42.6792258 C56.4468907,42.8381648 56.2242013,42.9176332 56.0286663,42.9176332 C55.800542,42.9176332 55.6104413,42.8139203 55.4583585,42.6064913 C55.3062756,42.3990624 55.2302354,42.098699 55.2302354,41.7053922 C55.2302354,41.4737183 55.2899813,41.2097218 55.409475,40.9133948 C55.5289686,40.6170677 55.7041328,40.2951536 55.9349728,39.9476428 C56.1658129,39.6001319 56.4251645,39.2539733 56.7130356,38.9091563 C56.5609528,38.9414829 56.3898621,38.9751559 56.1997586,39.0101764 C56.0096551,39.0451969 55.8086915,39.0815637 55.5968618,39.1192781 C55.3850321,39.1569924 55.2220887,39.1866247 55.1080266,39.2081758 C54.7712717,39.8762586 54.2824413,40.482373 53.6415208,41.0265372 Z M65.0721183,40.9457212 L62.3672299,43.1519998 C61.6068158,44.4558388 60.9143061,45.4296627 60.2896801,46.0735005 C59.6650542,46.7173384 59.2006654,47.0392525 58.8964997,47.0392525 C58.7335538,47.0392525 58.6520821,46.9395804 58.6520821,46.7402331 C58.6520821,46.352314 58.8503299,45.8566471 59.2468316,45.2532175 C59.404346,45.0161558 59.5849416,44.7844854 59.788624,44.5581993 C59.9923064,44.3319132 60.1851228,44.1366097 60.3670791,43.9722828 C60.5490353,43.807956 60.7893769,43.603224 61.088111,43.3580807 C61.3868452,43.1129374 61.5905245,42.9445723 61.6991551,42.8529803 C62.2423081,41.7538763 62.6333724,40.9133977 62.8723597,40.3315191 C62.3617959,40.8702955 61.9164171,41.3120856 61.53621,41.6569026 C61.1560029,42.0017195 60.8070324,42.2670629 60.4892879,42.4529408 C60.1715434,42.6388187 59.8850345,42.7317562 59.6297526,42.7317562 C59.3527445,42.7317562 59.0974665,42.5122081 58.8639107,42.0731053 C58.6303549,41.6340025 58.5135788,41.182784 58.5135788,40.7194362 C58.5135788,40.5039256 58.5638197,40.2776429 58.664303,40.0405812 C58.7647863,39.8035196 58.9222983,39.5502985 59.1368437,39.2809102 C59.3513891,39.011522 59.6243194,38.7354032 59.9556427,38.4525456 C60.2869661,38.1696879 60.6753146,37.8935691 61.1207001,37.6241809 C61.9625872,37.1015677 62.6170767,36.840265 63.0841883,36.840265 C63.4318062,36.840265 63.6056126,36.9668756 63.6056126,37.2201006 C63.6056126,37.5703053 63.2281269,37.9124232 62.4731442,38.2464646 C62.0114642,38.4458119 61.5538647,38.7098084 61.1003319,39.038462 C60.6467992,39.3671157 60.2801764,39.7159682 60.0004526,40.0850301 C59.7207288,40.454092 59.580869,40.7867814 59.580869,41.0831085 C59.580869,41.2285781 59.6161735,41.3444133 59.6867833,41.4306176 C59.7573932,41.5168218 59.8497279,41.5599233 59.96379,41.5599233 C60.1538935,41.5599233 60.3711515,41.4737203 60.6155703,41.3013119 C60.8599892,41.1289034 61.2211805,40.8244993 61.6991551,40.3880903 C61.9164163,40.188743 62.2056409,39.8668289 62.5668377,39.4223383 C62.9280344,38.9778478 63.2267641,38.6384237 63.4630356,38.4040559 C63.6993072,38.1696882 63.9124915,38.052506 64.1025951,38.052506 C64.2112256,38.052506 64.2994867,38.0861791 64.3673808,38.1535261 C64.4352749,38.2208732 64.4692215,38.3191984 64.4692215,38.4485048 C64.4692215,38.6963419 64.3700976,39.0559698 64.1718467,39.5273992 C63.9735959,39.9988286 63.6164781,40.7706143 63.1004828,41.8427795 L65.0721183,40.4204168 L65.0721183,40.9457212 Z M65.9683162,38.957646 C66.7939088,38.2141344 67.5950474,37.6618969 68.3717562,37.3009166 C69.148465,36.9399364 69.74864,36.759449 70.1722993,36.759449 C70.2863615,36.759449 70.3922747,36.8065912 70.4900422,36.9008771 C70.5878098,36.995163 70.6652079,37.1042636 70.722239,37.2281822 C70.77927,37.3521007 70.8077852,37.4436914 70.8077852,37.5029568 C70.8077852,37.5999365 70.769765,37.6713234 70.6937236,37.7171194 C70.6176822,37.7629154 70.4846117,37.8181391 70.2945081,37.8827923 C70.3325289,37.9689965 70.3814119,38.079444 70.4411587,38.2141382 C70.5009055,38.3488323 70.5470729,38.4579329 70.579662,38.5414432 C70.6122512,38.6249536 70.6285456,38.6990342 70.6285456,38.7636874 C70.6285456,38.8929938 70.4968329,39.1340926 70.2334037,39.4869912 C69.9699745,39.8398898 69.7853053,40.0998455 69.6793905,40.2668662 C69.5734756,40.4338869 69.520519,40.6386189 69.520519,40.8810683 C69.520519,41.2797629 69.7051883,41.4791072 70.0745323,41.4791072 C70.4547394,41.4791072 71.049483,41.1262139 71.8587809,40.4204168 L71.8587809,40.9133948 C70.4846039,42.4273566 69.5015117,43.1843262 68.909475,43.1843262 C68.6976453,43.1843262 68.5469226,43.1156332 68.4573024,42.9782452 C68.3676821,42.8408572 68.3228727,42.6374722 68.3228727,42.3680839 C68.3228727,41.9424505 68.4776689,41.3255607 68.7872661,40.517396 C67.9942628,41.3902139 67.4049506,42.0111445 67.019312,42.3802063 C66.6336734,42.7492682 66.3159337,42.9337964 66.0660833,42.9337964 C65.9465896,42.9337964 65.7972248,42.8314304 65.6179843,42.6266953 C65.4387438,42.4219603 65.279874,42.1566169 65.1413699,41.8306571 C65.0028659,41.5046973 64.933615,41.1666202 64.933615,40.8164155 C64.933615,40.5631905 64.9580565,40.3517239 65.0069403,40.1820094 C65.055824,40.0122948 65.1508744,39.838542 65.2920941,39.6607457 C65.4333139,39.4829495 65.658719,39.2485853 65.9683162,38.957646 Z M69.8708509,38.0686692 C68.4586532,38.7098132 67.4524774,39.2539693 66.8522933,39.7011538 C66.2521093,40.1483382 65.9520217,40.6089852 65.9520217,41.0831085 C65.9520217,41.255517 65.9818947,41.3969437 66.0416415,41.5073928 C66.1013883,41.617842 66.1828601,41.6730658 66.2860591,41.6730658 C66.345806,41.6730658 66.4517192,41.635352 66.6038021,41.5599233 C67.1741127,41.2258819 67.6955317,40.7908264 68.1680748,40.2547438 C68.6406179,39.7186612 69.2082043,38.989977 69.8708509,38.0686692 Z M77.2767049,38.9414828 C76.3207556,39.9974846 75.8427882,40.7329035 75.8427882,41.1477613 C75.8427882,41.3794352 75.9378385,41.4952704 76.1279421,41.4952704 C76.2854564,41.4952704 76.4904936,41.4131082 76.7430597,41.2487814 C76.9956259,41.0844546 77.3907638,40.7921728 77.9284852,40.3719271 L77.9284852,40.929558 C77.157208,41.683845 76.5651801,42.2280011 76.1523838,42.5620425 C75.7395876,42.8960839 75.4028378,43.0631021 75.1421243,43.0631021 C74.6967389,43.0631021 74.4740495,42.7721672 74.4740495,42.1902886 C74.4740495,42.0178801 74.5012067,41.8481681 74.555522,41.6811474 C74.6098373,41.5141267 74.6845197,41.3403739 74.7795715,41.1598838 C74.8746233,40.9793936 75.0199145,40.7207848 75.2154496,40.3840495 C75.4109847,40.0473142 75.6363898,39.6661356 75.8916717,39.2405022 C75.5820745,39.3967474 75.1937259,39.7065392 74.7266144,40.1698869 C74.4224487,40.4608262 74.1644549,40.736945 73.9526252,40.9982516 C73.7407956,41.2595582 73.5140326,41.5504931 73.2723295,41.8710651 C73.0306264,42.1916371 72.8541044,42.4071445 72.742758,42.5175937 C72.6314116,42.6280428 72.5187091,42.6832666 72.404647,42.6832666 C72.230838,42.6832666 72.0706103,42.5027792 71.923959,42.141799 C71.7773077,41.7808187 71.7039831,41.3605794 71.7039831,40.8810683 C71.7039831,40.5847413 71.7379297,40.3530709 71.8058238,40.1860502 C71.8737179,40.0190295 72.0081462,39.7819714 72.2091129,39.4748688 C72.5838884,38.9037657 72.9070596,38.4848733 73.1786361,38.218179 C73.4502126,37.9514846 73.7109221,37.8181394 73.9607725,37.8181394 C74.1345814,37.8181394 74.2744412,37.8477717 74.3803561,37.9070371 C74.4862709,37.9663025 74.5392275,38.0578931 74.5392275,38.1818117 C74.5392275,38.2356894 74.5229332,38.2922601 74.490344,38.3515255 C74.4577548,38.4107909 74.4210925,38.4646677 74.3803561,38.5131576 C74.3396196,38.5616475 74.2540743,38.655932 74.1237176,38.7960138 C73.2655358,39.7388726 72.8364514,40.3503748 72.8364514,40.6305385 C72.8364514,40.7867837 72.8880502,40.8649051 72.9912492,40.8649051 C73.0564276,40.8649051 73.1827088,40.7611922 73.3700966,40.5537633 C73.5574843,40.3463343 73.7991838,40.0742563 74.0952022,39.737521 C74.3912206,39.4007857 74.741549,39.0492393 75.1461979,38.6828713 C75.5508469,38.3165033 76.0111622,37.9636101 76.5271575,37.6241809 C76.8150286,37.4248336 77.0540123,37.3251614 77.2441159,37.3251614 C77.3310204,37.3251614 77.4165657,37.4436905 77.5007544,37.6807521 C77.5849431,37.9178138 77.6270368,38.1575657 77.6270368,38.4000151 C77.6270368,38.5185459 77.5102607,38.6990333 77.2767049,38.9414828 Z M81.2199759,36.7917754 C81.0841876,36.7917754 80.9551907,36.7405924 80.8329813,36.6382249 C80.7107719,36.5358574 80.6496681,36.4065529 80.6496681,36.2503078 C80.6496681,36.0132461 80.7637285,35.7492496 80.9918527,35.4583103 C81.219977,35.167371 81.456245,35.0219036 81.7006639,35.0219036 C81.8636097,35.0219036 81.999396,35.0717396 82.1080266,35.1714133 C82.2166572,35.2710869 82.2709716,35.4152075 82.2709716,35.6037792 C82.2709716,35.8354531 82.1596269,36.0913681 81.9369342,36.3715319 C81.7142415,36.6516956 81.4752578,36.7917754 81.2199759,36.7917754 Z M81.7739891,40.4042535 L81.7739891,40.9942108 C81.2471307,41.6676814 80.7555847,42.1754706 80.2993361,42.5175937 C79.8430876,42.8597167 79.4547391,43.0307757 79.1342788,43.0307757 C78.6888934,43.0307757 78.357575,42.7991053 78.1403138,42.3357575 C77.9230526,41.8724097 77.8144237,41.3659675 77.8144237,40.8164155 C77.8144237,40.6062927 77.8361495,40.4056014 77.8796017,40.2143358 C77.9230539,40.0230701 77.9746527,39.8654804 78.0343995,39.7415618 C78.0941463,39.6176432 78.205491,39.4236866 78.3684369,39.1596861 C79.1397142,37.9689901 79.8458025,37.3736511 80.486723,37.3736511 C80.8180463,37.3736511 80.9837055,37.5002616 80.9837055,37.7534866 C80.9837055,37.9258951 80.8764344,38.1952792 80.661889,38.5616472 C80.4473435,38.9280152 80.255885,39.1893179 80.0875075,39.3455631 C79.6149644,39.7981353 79.3067297,40.1133148 79.1627942,40.291111 C79.0188587,40.4689073 78.946892,40.6709454 78.946892,40.8972315 C78.946892,41.0911911 79.0202165,41.2528216 79.1668678,41.3821279 C79.3135191,41.5114343 79.5036198,41.5760865 79.7371756,41.5760865 C79.9924575,41.5760865 80.273535,41.4831489 80.5804164,41.2972711 C80.8872979,41.1113932 81.2851514,40.8137237 81.7739891,40.4042535 Z M86.6053108,40.4204168 L86.6053108,40.9618844 C86.0241371,41.5275997 85.5502432,41.9666959 85.183615,42.2791863 C84.8169867,42.5916766 84.4748055,42.8341224 84.157061,43.0065309 C83.8393165,43.1789393 83.528366,43.2651423 83.2242004,43.2651423 C82.9254662,43.2651423 82.6511781,43.1479601 82.4013277,42.9135924 C82.1514773,42.6792246 81.9559452,42.3721266 81.8147254,41.9922892 C81.6735056,41.6124518 81.6028968,41.2097225 81.6028968,40.784089 C81.6028968,40.4177211 81.6843685,40.0917662 81.8473144,39.8062147 C82.0102603,39.5206631 82.3252843,39.1516068 82.7923959,38.6990346 C83.3464119,38.1602581 83.8610417,37.7440595 84.3363005,37.4504263 C84.8115594,37.1567932 85.1849715,37.0099788 85.456548,37.0099788 C85.6520831,37.0099788 85.8177422,37.0773248 85.9535305,37.2120189 C86.0893187,37.3467131 86.1572118,37.5164251 86.1572118,37.7211602 C86.1572118,37.8935686 86.0675929,38.1387082 85.8883524,38.4565864 C85.709112,38.7744645 85.5081484,39.0505833 85.2854556,39.284951 C85.0627629,39.5193188 84.8862408,39.6365009 84.7558841,39.6365009 C84.6146644,39.6365009 84.5440555,39.5610733 84.5440555,39.4102159 C84.5494871,39.3671138 84.5535606,39.3267062 84.5562764,39.2889918 C84.5589922,39.2512775 84.56035,39.2135637 84.56035,39.1758493 C84.56035,39.1111962 84.5372664,39.0748293 84.4910984,39.0667477 C84.4449304,39.058666 84.389258,39.0788698 84.3240797,39.1273597 C83.7809267,39.5045032 83.4088725,39.7698467 83.2079059,39.9233979 C83.0069392,40.0769492 82.8480694,40.2318452 82.7312915,40.3880903 C82.6145136,40.5443355 82.5561255,40.7086599 82.5561255,40.8810683 C82.5561255,41.1989464 82.659323,41.4575553 82.8657212,41.6569026 C83.0721193,41.8562498 83.340976,41.955922 83.6722993,41.955922 C84.0144857,41.955922 84.4259179,41.8252707 84.9066083,41.5639641 C85.3872987,41.3026575 85.9535272,40.9214789 86.6053108,40.4204168 Z M92.3246832,40.4204168 L92.1780326,41.0992717 C92.1563065,41.1854759 92.1454436,41.2824542 92.1454436,41.3902095 C92.1454436,41.6811488 92.2676512,41.8266163 92.51207,41.8266163 C92.7456258,41.8266163 93.3132121,41.3740509 94.2148461,40.4689064 C94.2202776,40.1187017 94.3519903,39.7146254 94.6099879,39.2566654 C94.8679856,38.7987054 95.1531366,38.397323 95.4654496,38.052506 C95.7777626,37.7076891 96.009957,37.5352832 96.1620398,37.5352832 C96.4010271,37.5352832 96.520519,37.691526 96.520519,38.0040164 C96.520519,38.1925882 96.4743517,38.4229116 96.3820157,38.6949938 C96.2896797,38.9670759 96.1538935,39.2607046 95.974653,39.5758889 C95.7954125,39.8910731 95.5754388,40.215681 95.3147254,40.5497225 C95.4505137,40.7921719 95.5890156,40.9133948 95.7302354,40.9133948 C95.849729,40.9133948 95.9814416,40.8716402 96.1253772,40.7881299 C96.2693127,40.7046195 96.4499084,40.576662 96.6671696,40.4042535 L96.6671696,40.9457212 C96.3630039,41.1827828 96.1226623,41.3444133 95.9461376,41.4306176 C95.7696129,41.5168218 95.5428499,41.5599233 95.2658419,41.5599233 C95.1572113,41.5599233 94.9616791,41.4871895 94.6792396,41.3417199 C94.1252235,41.9235985 93.6744133,42.358654 93.3267954,42.6468994 C92.9791775,42.9351448 92.6967422,43.0792653 92.479481,43.0792653 C92.1047054,43.0792653 91.7856078,42.8570234 91.5221786,42.4125328 C91.2587494,41.9680422 91.1270368,41.4791099 91.1270368,40.9457212 C91.1270368,40.2291485 91.5343954,39.3698129 92.3491249,38.3676887 C92.5935438,38.0659739 92.7904338,37.859895 92.9398008,37.7494458 C93.0891679,37.6389966 93.2589007,37.5837728 93.4490042,37.5837728 C93.6119501,37.5837728 93.7667464,37.6134051 93.9133977,37.6726705 C94.060049,37.7319359 94.1333736,37.8019758 94.1333736,37.8827923 C94.1333736,38.1521805 93.95142,38.5468284 93.5875075,39.0667477 C93.223595,39.5866669 92.8026578,40.0378855 92.3246832,40.4204168 Z M97.9544357,40.6951914 L97.9544357,40.8972315 C97.9544357,41.2151097 98.0331917,41.4629431 98.1907061,41.6407393 C98.3482205,41.8185356 98.5546155,41.9074324 98.8098974,41.9074324 C99.0760424,41.9074324 99.3516884,41.845474 99.6368437,41.7215554 C99.921999,41.5976368 100.205792,41.4333125 100.488232,41.2285774 C100.770671,41.0238424 101.115568,40.7490705 101.522933,40.4042535 L101.522933,40.8972315 C100.90917,41.6299675 100.333437,42.1916336 99.7957151,42.5822465 C99.2579937,42.9728594 98.7121331,43.168163 98.1581171,43.168163 C97.6747109,43.168163 97.2917938,42.9822879 97.0093543,42.6105321 C96.7269147,42.2387764 96.585697,41.7296402 96.585697,41.0831085 C96.585697,40.5173932 96.7187675,40.0042163 96.9849125,39.5435624 C97.2510575,39.0829086 97.6855733,38.5966701 98.2884731,38.0848325 C98.7012694,37.7346278 99.1113438,37.4706312 99.5187085,37.292835 C99.9260732,37.1150388 100.28998,37.026142 100.610441,37.026142 C100.865722,37.026142 101.068044,37.0840596 101.217411,37.1998965 C101.366778,37.3157335 101.44146,37.4894863 101.44146,37.7211602 C101.44146,38.0605893 101.313821,38.3986665 101.05854,38.7354018 C100.803258,39.0721371 100.413551,39.4061735 99.8894086,39.737521 C99.3652659,40.0688685 98.7202814,40.3880888 97.9544357,40.6951914 Z M98.0359083,40.1698869 C98.524746,39.9813152 98.9429675,39.7469509 99.2905854,39.4667872 C99.6382033,39.1866234 99.8948392,38.9185861 100.060501,38.6626673 C100.226163,38.4067485 100.308992,38.2195265 100.308992,38.1009957 C100.308992,37.9770771 100.251962,37.9151187 100.1379,37.9151187 C100.040132,37.9151187 99.8812624,37.9770771 99.6612855,38.1009957 C99.4413085,38.2249143 99.2186191,38.3865448 98.9932106,38.5858921 C98.7678021,38.7852394 98.5654807,39.0196036 98.3862402,39.2889918 C98.2069997,39.5583801 98.0902236,39.8520088 98.0359083,40.1698869 Z M108,40.9457212 L105.295112,43.1519998 C104.534697,44.4558388 103.842188,45.4296627 103.217562,46.0735005 C102.592936,46.7173384 102.128547,47.0392525 101.824381,47.0392525 C101.661436,47.0392525 101.579964,46.9395804 101.579964,46.7402331 C101.579964,46.352314 101.778212,45.8566471 102.174713,45.2532175 C102.332228,45.0161558 102.512823,44.7844854 102.716506,44.5581993 C102.920188,44.3319132 103.113005,44.1366097 103.294961,43.9722828 C103.476917,43.807956 103.717259,43.603224 104.015993,43.3580807 C104.314727,43.1129374 104.518406,42.9445723 104.627037,42.8529803 C105.17019,41.7538763 105.561254,40.9133977 105.800241,40.3315191 C105.289678,40.8702955 104.844299,41.3120856 104.464092,41.6569026 C104.083885,42.0017195 103.734914,42.2670629 103.41717,42.4529408 C103.099425,42.6388187 102.812916,42.7317562 102.557634,42.7317562 C102.280626,42.7317562 102.025348,42.5122081 101.791792,42.0731053 C101.558237,41.6340025 101.44146,41.182784 101.44146,40.7194362 C101.44146,40.5039256 101.491701,40.2776429 101.592185,40.0405812 C101.692668,39.8035196 101.85018,39.5502985 102.064725,39.2809102 C102.279271,39.011522 102.552201,38.7354032 102.883524,38.4525456 C103.214848,38.1696879 103.603196,37.8935691 104.048582,37.6241809 C104.890469,37.1015677 105.544958,36.840265 106.01207,36.840265 C106.359688,36.840265 106.533494,36.9668756 106.533494,37.2201006 C106.533494,37.5703053 106.156009,37.9124232 105.401026,38.2464646 C104.939346,38.4458119 104.481746,38.7098084 104.028214,39.038462 C103.574681,39.3671157 103.208058,39.7159682 102.928334,40.0850301 C102.648611,40.454092 102.508751,40.7867814 102.508751,41.0831085 C102.508751,41.2285781 102.544055,41.3444133 102.614665,41.4306176 C102.685275,41.5168218 102.77761,41.5599233 102.891672,41.5599233 C103.081775,41.5599233 103.299033,41.4737203 103.543452,41.3013119 C103.787871,41.1289034 104.149062,40.8244993 104.627037,40.3880903 C104.844298,40.188743 105.133523,39.8668289 105.494719,39.4223383 C105.855916,38.9778478 106.154646,38.6384237 106.390917,38.4040559 C106.627189,38.1696882 106.840373,38.052506 107.030477,38.052506 C107.139107,38.052506 107.227368,38.0861791 107.295263,38.1535261 C107.363157,38.2208732 107.397103,38.3191984 107.397103,38.4485048 C107.397103,38.6963419 107.297979,39.0559698 107.099728,39.5273992 C106.901478,39.9988286 106.54436,40.7706143 106.028365,41.8427795 L108,40.4204168 L108,40.9457212 Z" id="Healthy-organic-veg" fill="#000000"></path>
                <path d="M23.8572361,12.1146374 C23.8572361,13.8257495 23.5643096,15.4400063 22.9784566,16.8928373 C22.3926036,18.3456683 21.6114662,19.6047886 20.5699498,20.670198 C19.5284333,21.7356074 18.2590852,22.5750209 16.7944527,23.1561534 C15.3298202,23.7372858 13.7349981,24.0601371 11.9448917,24.0601371 C10.1547853,24.0601371 8.5274159,23.7372858 7.06278339,23.1561534 C5.59815089,22.5750209 4.32880273,21.7356074 3.28728628,20.670198 C2.24576984,19.6047886 1.43208511,18.3456683 0.846232112,16.8928373 C0.260379111,15.4400063 0,13.8257495 0,12.1146374 C0,10.4035253 0.260379111,8.82155373 0.846232112,7.36872269 C1.43208511,5.91589165 2.24576984,4.65677141 3.28728628,3.59136198 C4.32880273,2.52595255 5.59815089,1.68653906 7.06278339,1.10540664 C8.5274159,0.524274223 10.1547853,0.20142288 11.9448917,0.20142288 C13.7349981,0.20142288 15.3298202,0.491989089 16.7944527,1.10540664 C18.2590852,1.71882419 19.5284333,2.52595255 20.5699498,3.59136198 C21.6114662,4.65677141 22.3926036,5.91589165 22.9784566,7.36872269 C23.5643096,8.82155373 23.8572361,10.4035253 23.8572361,12.1146374 Z M19.3656964,12.1146374 C19.3656964,10.8232321 19.1704121,9.72553749 18.8449382,8.6924132 C18.5194643,7.6592889 18.0312535,6.81987541 17.3803057,6.10960245 C16.7293579,5.3993295 15.9482206,4.85048222 15.0368937,4.46306061 C14.1255668,4.07563899 13.0840503,3.91421332 11.9448917,3.91421332 C10.8057331,3.91421332 9.73166929,4.07563899 8.8203424,4.46306061 C7.90901551,4.85048222 7.12787817,5.3993295 6.47693039,6.10960245 C5.82598262,6.81987541 5.33777178,7.6592889 4.9797505,8.6924132 C4.62172923,9.72553749 4.45899228,10.8232321 4.45899228,12.1146374 C4.45899228,13.4060428 4.62172923,14.5360225 4.9797505,15.5691468 C5.33777178,16.6022711 5.82598262,17.4416846 6.47693039,18.1519575 C7.12787817,18.8622305 7.90901551,19.4110778 8.8203424,19.7984994 C9.73166929,20.185921 10.8057331,20.3473467 11.9448917,20.3473467 C13.0840503,20.3473467 14.1255668,20.185921 15.0368937,19.7984994 C15.9482206,19.4110778 16.7293579,18.8622305 17.3803057,18.1519575 C18.0312535,17.4416846 18.5194643,16.6022711 18.8449382,15.5691468 C19.1704121,14.5360225 19.3656964,13.4060428 19.3656964,12.1146374 Z M42.5394373,7.23958215 L42.5394373,9.14440508 C42.5394373,9.69325236 42.2790582,10.0161037 41.7257526,10.1452442 C41.4653735,10.1775294 41.5630157,10.2098145 40.1960253,10.4358104 L34.8257062,23.801856 L31.1803986,23.801856 L25.8100794,10.4358104 C24.4105417,10.1775294 24.5407313,10.1775294 24.2803522,10.1452442 C23.7270466,10.0161037 23.4666674,9.69325236 23.4666674,9.14440508 L23.4666674,7.23958215 L31.6035147,7.23958215 L31.6035147,9.14440508 C31.6035147,9.69325236 31.3431356,10.0161037 30.7898299,10.1452442 C30.5945456,10.1775294 30.5294508,10.1775294 29.8785031,10.3066699 L32.2544624,16.828267 C32.4497468,17.3448292 32.5799363,17.8613913 32.7101259,18.3456683 C32.8403155,18.8299454 32.970505,19.3465075 33.0681472,19.8307845 C33.1657893,19.3465075 33.2634315,18.8299454 33.3936211,18.3456683 C33.5238106,17.8613913 33.6865476,17.3448292 33.8818319,16.828267 L36.2903387,10.338955 C35.476654,10.2098145 35.4115592,10.1775294 35.2162748,10.1452442 C34.6629692,10.0161037 34.4025901,9.69325236 34.4025901,9.14440508 L34.4025901,7.23958215 L42.5394373,7.23958215 Z M49.7324103,6.98130108 C50.7739268,6.98130108 51.7503484,7.14272675 52.6291279,7.46557809 C53.5079074,7.78842944 54.2564974,8.30499159 54.9074452,8.95069427 C55.5583929,9.59639696 56.0466038,10.3712402 56.4046251,11.3075091 C56.7626463,12.243778 56.9579307,13.2769023 56.9579307,14.4714522 C56.9579307,14.7620184 56.9253833,15.0525847 56.8928359,15.2462955 C56.8602885,15.4400063 56.8277411,15.6014319 56.7626463,15.6982873 C56.6975516,15.8274279 56.5999094,15.8919981 56.4697198,15.9565684 C56.3395303,16.0211387 56.2093407,16.0211387 56.0140564,16.0211387 L45.6965341,16.0211387 C45.8267237,17.7322508 46.2823871,18.9590859 47.0960718,19.7662143 C47.9097566,20.5733426 48.951273,20.9607642 50.2857159,20.9607642 C50.9366637,20.9607642 51.4899693,20.896194 51.9456328,20.7347683 C52.4338436,20.5733426 52.8244123,20.4119169 53.1824336,20.2182061 C53.5404548,20.0244953 53.8659287,19.8953548 54.1263078,19.7339291 C54.3866869,19.5725034 54.6145187,19.5079332 54.8748978,19.5079332 C55.0376347,19.5079332 55.2003717,19.5402183 55.3305612,19.6047886 C55.4607508,19.6693589 55.5258456,19.7339291 55.6234877,19.8630697 L56.7951937,21.3159007 C56.3395303,21.8324628 55.8513194,22.2844547 55.2980138,22.6395912 C54.7447082,22.9947277 54.1588552,23.2852939 53.5730022,23.4790047 C52.9546018,23.6727155 52.3362014,23.801856 51.7178011,23.8987114 C51.0994007,23.9955668 50.4810003,24.027852 49.8951473,24.027852 C48.7234413,24.027852 47.6819248,23.8664263 46.6729558,23.4790047 C45.6639867,23.0915831 44.8177546,22.5104507 44.0691647,21.7678926 C43.3205747,21.0253345 42.7347217,20.0890656 42.3116057,18.991371 C41.8884896,17.8936765 41.6932053,16.6022711 41.6932053,15.1494401 C41.6932053,14.0194604 41.8884896,12.9863361 42.2465109,11.9854969 C42.6045322,10.9846577 43.1578378,10.1129591 43.8413329,9.37040102 C44.5248281,8.62784293 45.3710602,8.04671051 46.3474819,7.62700377 C47.3239036,7.20729702 48.4956096,6.98130108 49.7324103,6.98130108 Z M49.7975051,9.8223929 C48.6257991,9.8223929 47.7144722,10.1775294 47.0635244,10.8232321 C46.4125767,11.4689347 45.9894606,12.4052036 45.7941763,13.5997536 L53.3451705,13.5997536 C53.3451705,13.0831915 53.2475283,12.5989144 53.1173388,12.1469226 C52.9871492,11.6949307 52.7593175,11.3075091 52.466391,10.9523726 C52.1734645,10.5972361 51.8154432,10.338955 51.3597798,10.1452442 C50.9041163,9.95153343 50.3833581,9.8223929 49.7975051,9.8223929 Z M63.9230719,6.94901595 C64.6391145,6.94901595 65.3226097,7.04587135 65.94101,7.17501189 C66.5594104,7.30415242 67.1452634,7.53014836 67.6660217,7.82071457 L72.4504878,7.82071457 L72.4504878,9.30583075 C72.4504878,9.56411182 72.3853931,9.75782263 72.2552035,9.88696316 C72.1250139,10.0161037 71.9297296,10.1129591 71.6042557,10.1775294 L70.1070758,10.4358104 C70.204718,10.7263767 70.2698128,11.0169429 70.3349076,11.3397942 C70.4000023,11.6626456 70.4325497,11.9532118 70.4325497,12.3083482 C70.4325497,13.1154766 70.2698128,13.8903198 69.9443389,14.5360225 C69.618865,15.1817252 69.1632015,15.7628576 68.5773485,16.2148495 C67.9914955,16.6668414 67.275453,17.0219778 66.4943157,17.2802589 C65.7131783,17.53854 64.8669462,17.6676805 63.9230719,17.6676805 C63.3046715,17.6676805 62.6537238,17.6353954 62.0678708,17.5062549 C61.5471125,17.8291062 61.2867334,18.1519575 61.2867334,18.5393792 C61.2867334,18.8622305 61.416923,19.1205116 61.7423969,19.2819372 C62.0678708,19.4433629 62.4584394,19.5402183 62.9791977,19.6047886 C63.4999559,19.6693589 64.0532615,19.7339291 64.7042093,19.7339291 C65.355157,19.7662143 65.9735574,19.7662143 66.6570526,19.8307845 C67.3405478,19.8953548 67.9914955,19.9922102 68.6424433,20.1213507 C69.2933911,20.2504913 69.8141493,20.4764872 70.3349076,20.7670534 C70.8556658,21.0576196 71.2462344,21.4127561 71.5717083,21.9293183 C71.8971822,22.4458804 72.0273718,23.0915831 72.0273718,23.8664263 C72.0273718,24.6089844 71.8320874,25.3192574 71.4740662,25.9972452 C71.1160449,26.675233 70.5952867,27.2886505 69.9117915,27.8374978 C69.2282963,28.3863451 68.3820642,28.8060519 67.3730952,29.1289032 C66.3641261,29.4517545 65.2249675,29.6131802 63.9556193,29.6131802 C62.6862712,29.6131802 61.5796599,29.5163248 60.6357857,29.2580437 C59.6919114,28.9997627 58.9433214,28.6769113 58.324921,28.2894897 C57.7065207,27.9020681 57.2508572,27.4177911 56.9579307,26.9012289 C56.6650042,26.3846668 56.5022673,25.8358195 56.5022673,25.2546871 C56.5022673,24.4798439 56.730099,23.801856 57.2183098,23.2852939 C57.7065207,22.7687317 58.3574684,22.3813101 59.2037005,22.0584588 C58.7805845,21.8324628 58.487658,21.5418966 58.2272789,21.154475 C57.9668998,20.7670534 57.8367102,20.2827764 57.8367102,19.6693589 C57.8367102,19.4110778 57.8692576,19.1527967 57.9668998,18.8945156 C58.0645419,18.6362346 58.1621841,18.3779535 58.3574684,18.1196724 C58.5527528,17.8613913 58.7805845,17.6031103 59.0409636,17.3771143 C59.3013427,17.1511184 59.659364,16.9574076 60.0173853,16.7636968 C59.1711532,16.3117049 58.487658,15.6982873 57.9994472,14.9557292 C57.5112363,14.2131712 57.2834046,13.3091874 57.2834046,12.3083482 C57.2834046,11.5012199 57.4461415,10.7263767 57.7716154,10.080674 C58.0970893,9.43497129 58.5853002,8.85383887 59.1711532,8.40184699 C59.7570062,7.94985511 60.4405013,7.59471863 61.254186,7.33643756 C62.0678708,7.07815648 62.9791977,6.94901595 63.9230719,6.94901595 Z M68.3169694,24.5444141 C68.3169694,24.2215628 68.2193273,23.9632817 68.0240429,23.7695709 C67.8287586,23.5758601 67.5683795,23.4144344 67.2429056,23.2852939 C66.9174317,23.1561534 66.4943157,23.0915831 66.0386522,23.0270128 C65.5829888,22.9624425 65.1273253,22.9301574 64.6065671,22.8978723 C64.0858089,22.8655871 63.5650507,22.8655871 63.0442924,22.833302 C62.5235342,22.8010169 62.002776,22.7687317 61.5145652,22.7041615 C61.0589017,22.9624425 60.668333,23.2530088 60.4079539,23.5758601 C60.1475748,23.8987114 59.9848379,24.2861331 59.9848379,24.7381249 C59.9848379,25.0286911 60.08248,25.2869722 60.2126696,25.5452533 C60.3428592,25.8035344 60.5706909,26.0295303 60.8961648,26.2232411 C61.2216387,26.4169519 61.6447547,26.5460925 62.1655129,26.6429479 C62.6862712,26.7398033 63.2721242,26.8043735 64.0207141,26.8043735 C64.769304,26.8043735 65.4202518,26.7398033 65.9735574,26.6106627 C66.526863,26.4815222 66.9499791,26.3523816 67.3080004,26.1586708 C67.6660217,25.96496 67.9264008,25.706679 68.0891377,25.4483979 C68.2518747,25.1901168 68.3169694,24.8672655 68.3169694,24.5444141 Z M63.9230719,15.1171549 C64.4112828,15.1171549 64.8669462,15.0525847 65.2249675,14.9234441 C65.5829888,14.7943036 65.9084627,14.6005928 66.1362944,14.3745968 C66.3966735,14.1486009 66.5594104,13.8257495 66.6896,13.5028982 C66.8197895,13.1800469 66.8848843,12.7926253 66.8848843,12.4052036 C66.8848843,11.5980753 66.6245052,10.9523726 66.1362944,10.4680956 C65.6480835,9.98381857 64.8994936,9.75782263 63.9230719,9.75782263 C62.9466503,9.75782263 62.1655129,9.98381857 61.6773021,10.4680956 C61.1890913,10.9523726 60.9612595,11.5980753 60.9612595,12.4052036 C60.9612595,12.7926253 60.9938069,13.1800469 61.1239965,13.5028982 C61.254186,13.8257495 61.416923,14.0840306 61.6773021,14.3423117 C61.9376812,14.6005928 62.2306077,14.7943036 62.6211764,14.9234441 C63.011745,15.0525847 63.4348611,15.1171549 63.9230719,15.1171549 Z M87.194455,20.8639088 C87.7477607,20.9930494 88.0081398,21.3159007 88.0081398,21.864748 L88.0081398,23.7695709 L84.1675479,23.7695709 C83.7769792,23.7695709 83.4840527,23.7372858 83.256221,23.6081452 C83.0283893,23.5112898 82.8656523,23.2530088 82.7680102,22.8978723 L82.4099889,21.7356074 C81.9868728,22.1230291 81.5963041,22.4458804 81.1731881,22.7364466 C80.7826194,23.0270128 80.326956,23.2530088 79.9038399,23.4467196 C79.4807239,23.6404304 79.0250604,23.7695709 78.5368496,23.8664263 C78.0486388,23.9632817 77.4953331,24.027852 76.9094801,24.027852 C76.1934376,24.027852 75.5424898,23.9309966 74.9566368,23.7372858 C74.3707838,23.543575 73.8500256,23.2852939 73.4269095,22.8978723 C73.0037935,22.5104507 72.6457722,22.0261737 72.4179405,21.4773264 C72.1901088,20.9284791 72.0599192,20.2827764 72.0599192,19.5402183 C72.0599192,18.9268008 72.2226561,18.2810981 72.54813,17.6676805 C72.8736039,17.054263 73.4269095,16.5054157 74.2080469,16.0211387 C74.9891842,15.5368617 75.9981533,15.1171549 77.2675014,14.7943036 C78.5368496,14.4714522 80.164219,14.3100266 82.0519676,14.3100266 L82.0519676,13.3414725 C82.0519676,12.2114928 81.7915885,11.4043645 81.335925,10.8555172 C80.8802616,10.3066699 80.1967664,10.0483888 79.2854395,10.0483888 C78.6344918,10.0483888 78.0811861,10.1129591 77.6580701,10.2743848 C77.234954,10.4358104 76.8443854,10.5972361 76.5189115,10.7909469 C76.1934376,10.9846577 75.9005111,11.1137983 75.640132,11.2752239 C75.3797529,11.4366496 75.0868264,11.5012199 74.7613525,11.5012199 C74.5009734,11.5012199 74.2405943,11.4366496 74.0453099,11.3075091 C73.8500256,11.1783685 73.719836,10.9846577 73.5896465,10.7909469 L72.8410565,9.53182669 C74.7613525,7.78842944 77.0722171,6.88444568 79.7736504,6.88444568 C80.750072,6.88444568 81.6288515,7.04587135 82.4099889,7.36872269 C83.1585788,7.69157403 83.8095266,8.14356591 84.3302848,8.6924132 C84.851043,9.27354561 85.3067065,9.95153343 85.5670856,10.7263767 C85.8274647,11.5012199 85.9576543,12.3729185 85.9576543,13.3091874 L85.9576543,20.6379129 C86.3156755,20.7024831 86.6411494,20.7670534 86.8364338,20.7993386 C87.0317181,20.8316237 87.1619077,20.8639088 87.194455,20.8639088 Z M82.0519676,19.5079332 L82.0519676,16.7314116 C80.8802616,16.7314116 79.9038399,16.7959819 79.1227026,16.9574076 C78.3415653,17.1188332 77.6906175,17.3125441 77.2024066,17.53854 C76.7141958,17.7645359 76.3887219,18.022817 76.1934376,18.3133832 C75.9981533,18.6039494 75.9005111,18.9590859 75.9005111,19.3142224 C75.9005111,20.0244953 76.0957954,20.5410575 76.5189115,20.8316237 C76.9420275,21.1221899 77.4627858,21.2836156 78.1462809,21.2836156 C78.569397,21.2836156 78.9274183,21.2513304 79.2854395,21.1867602 C79.6434608,21.1221899 80.0014821,20.9930494 80.2944086,20.8316237 C80.5873351,20.670198 80.8802616,20.5087723 81.1731881,20.2827764 C81.4661146,20.0567805 81.7590411,19.7984994 82.0519676,19.5079332 Z M106.592699,20.896194 C107.146004,21.0253345 107.406384,21.3481858 107.406384,21.8970331 L107.406384,23.801856 L100.929453,23.801856 L100.929453,13.2769023 C100.929453,12.2760631 100.669074,11.4689347 100.213411,10.9200875 C99.7577472,10.3712402 99.0417046,10.080674 98.0978304,10.080674 C97.4143352,10.080674 96.7633874,10.2420996 96.144987,10.564951 C95.5265866,10.8878023 94.973281,11.2752239 94.4199754,11.8240712 L94.4199754,20.6056277 C94.8105441,20.670198 95.136018,20.7347683 95.3638497,20.7670534 C95.5916814,20.7993386 95.7544184,20.8316237 95.8520605,20.8639088 C95.9497027,20.896194 96.0147975,20.896194 96.0473449,20.896194 C96.6006505,21.0253345 96.8610296,21.3481858 96.8610296,21.8970331 L96.8610296,23.801856 L87.943045,23.801856 L87.943045,21.8970331 C87.943045,21.3481858 88.2034241,21.0253345 88.7567297,20.896194 C88.7892771,20.896194 88.8543719,20.8639088 88.9520141,20.8639088 C89.0496562,20.8316237 89.2123932,20.7993386 89.4402249,20.7670534 C89.6680566,20.7347683 89.9935305,20.670198 90.3840992,20.6056277 L90.3840992,10.4358104 C89.9935305,10.3712402 89.6680566,10.3066699 89.4402249,10.2743848 C89.2123932,10.2420996 89.0496562,10.1775294 88.9520141,10.1775294 C88.8543719,10.1452442 88.7892771,10.1452442 88.7567297,10.1452442 C88.2034241,10.0161037 87.943045,9.69325236 87.943045,9.14440508 L87.943045,7.23958215 L92.8577007,7.23958215 C93.378459,7.23958215 93.7039329,7.49786323 93.8666698,7.98214024 L94.1595963,9.27354561 C94.4850702,8.91840914 94.8105441,8.62784293 95.2011128,8.33727672 C95.559134,8.04671051 95.9822501,7.82071457 96.4053661,7.62700377 C96.8284822,7.43329296 97.2515983,7.23958215 97.7398091,7.14272675 C98.2280199,7.04587135 98.7487781,6.98130108 99.3020838,6.98130108 C100.213411,6.98130108 101.027095,7.11044162 101.743138,7.43329296 C102.45918,7.72385917 103.012486,8.17585105 103.500697,8.72469833 C103.95636,9.27354561 104.314382,9.95153343 104.574761,10.7263767 C104.83514,11.5012199 104.932782,12.3406334 104.932782,13.2769023 L104.932782,20.6056277 C105.323351,20.670198 105.681372,20.7347683 105.909204,20.7670534 C106.137035,20.7993386 106.299772,20.8639088 106.397415,20.8639088 C106.495057,20.8639088 106.560151,20.896194 106.592699,20.896194 Z" id="Ovegan" fill="url(#linearGradient-1)"></path>
            </g>
        </g>
    </g>
</svg>