
<svg width="25px" height="16px" viewBox="0 0 25 16" version="1.1" xmlns="http://www.w3.org/2000/svg" xmlns:xlink="http://www.w3.org/1999/xlink">
    <!-- Generator: Sketch 43.2 (39069) - http://www.bohemiancoding.com/sketch -->
    <desc>Created with Sketch.</desc>
    <defs></defs>
    <g id="Page-1" stroke="none" stroke-width="1" fill="none" fill-rule="evenodd">
        <g id="food-menu" transform="translate(-15.000000, -32.000000)" fill="#FCFCFC">
            <g id="menu" transform="translate(15.000000, 32.000000)">
                <path d="M0.931395349,2.28514286 L23.7215116,2.28514286 C24.2348837,2.28514286 24.65,1.87657143 24.65,1.37257143 C24.65,0.868 24.2348837,0.457142857 23.7215116,0.457142857 L0.931395349,0.457142857 C0.418023256,0.457142857 0,0.868 0,1.37257143 C0,1.87657143 0.418023256,2.28514286 0.931395349,2.28514286 Z" id="Fill-1"></path>
                <path d="M0.931395349,9.14228571 L23.7215116,9.14228571 C24.2348837,9.14228571 24.65,8.73371429 24.65,8.22971429 C24.65,7.72514286 24.2348837,7.31428571 23.7215116,7.31428571 L0.931395349,7.31428571 C0.418023256,7.31428571 0,7.72514286 0,8.22971429 C0,8.73371429 0.418023256,9.14228571 0.931395349,9.14228571 Z" id="Fill-2"></path>
                <path d="M0.931395349,15.9994286 L23.7215116,15.9994286 C24.2348837,15.9994286 24.65,15.5908571 24.65,15.0868571 C24.65,14.5822857 24.2348837,14.1714286 23.7215116,14.1714286 L0.931395349,14.1714286 C0.418023256,14.1714286 0,14.5822857 0,15.0868571 C0,15.5908571 0.418023256,15.9994286 0.931395349,15.9994286 Z" id="Fill-3"></path>
            </g>
        </g>
    </g>
</svg>