
<svg width="16px" height="14px" viewBox="0 0 16 14" version="1.1" xmlns="http://www.w3.org/2000/svg" xmlns:xlink="http://www.w3.org/1999/xlink">
    <!-- Generator: Sketch 43.2 (39069) - http://www.bohemiancoding.com/sketch -->
    <desc>Created with Sketch.</desc>
    <defs>
        <polygon id="path-1" points="7.99049573 0.0331884058 0.00820512821 0.0331884058 0.00820512821 13.3330435 15.9727863 13.3330435 15.9727863 0.0331884058 7.99049573 0.0331884058"></polygon>
    </defs>
    <g id="Page-1" stroke="none" stroke-width="1" fill="none" fill-rule="evenodd" opacity="0.2">
        <g id="menu" transform="translate(-30.000000, -277.000000)">
            <g id="envelope" transform="translate(30.000000, 277.000000)">
                <mask id="mask-2" fill="white">
                    <use xlink:href="#path-1"></use>
                </mask>
                <g id="Clip-2"></g>
                <path d="M1.53312821,4.13304348 C1.73511111,4.2842029 2.34406838,4.7326087 3.36,5.47869565 C4.37661538,6.22536232 5.15487179,6.8 5.69545299,7.2026087 C5.75480342,7.24666667 5.8814359,7.34289855 6.07425641,7.49072464 C6.26762393,7.63898551 6.42789744,7.7584058 6.55562393,7.84956522 C6.68321368,7.94130435 6.83760684,8.04318841 7.01921368,8.15695652 C7.2002735,8.27028986 7.37121368,8.35521739 7.53148718,8.41173913 C7.69230769,8.4684058 7.84082051,8.49666667 7.97757265,8.49666667 L7.99521368,8.49666667 C8.13196581,8.49666667 8.28047863,8.4684058 8.44129915,8.41173913 C8.6014359,8.35521739 8.77237607,8.26971014 8.95357265,8.15695652 C9.13463248,8.04318841 9.28902564,7.94130435 9.41716239,7.84956522 C9.54488889,7.7584058 9.70516239,7.63898551 9.89798291,7.49072464 C10.0913504,7.34289855 10.2179829,7.24666667 10.2771966,7.2026087 C10.8236581,6.79942029 12.2141538,5.77652174 14.4486838,4.13246377 C14.8824615,3.81144928 15.2447179,3.4242029 15.5357265,2.97072464 C15.8268718,2.51724638 15.9727863,2.04231884 15.9727863,1.54463768 C15.9727863,1.12913043 15.8312479,0.773043478 15.5491282,0.476956522 C15.2671453,0.180869565 14.9326496,0.0331884058 14.5464615,0.0331884058 L1.42632479,0.0331884058 C0.968478632,0.0331884058 0.616478632,0.196811594 0.369641026,0.524492754 C0.123350427,0.85173913 0,1.26101449 0,1.75246377 C0,2.14927536 0.163418803,2.57898551 0.490393162,3.04217391 C0.816820513,3.50463768 1.1645812,3.86869565 1.53312821,4.13304348 Z" id="Fill-1" fill="#000000" mask="url(#mask-2)"></path>
                <path d="M15.0811624,5.14362319 C13.1324444,6.54130435 11.6527863,7.62768116 10.6425983,8.40217391 C10.304,8.66710145 10.0288547,8.87318841 9.81784615,9.02086957 C9.60738462,9.16927536 9.32635897,9.32043478 8.976,9.47434783 C8.62495726,9.62898551 8.29866667,9.70594203 7.99521368,9.70594203 L7.97757265,9.70594203 C7.67411966,9.70594203 7.34728205,9.62898551 6.99678632,9.47434783 C6.64642735,9.32043478 6.36540171,9.16927536 6.15439316,9.02086957 C5.94393162,8.87318841 5.66878632,8.66710145 5.33018803,8.40217391 C4.5277265,7.77884058 3.05121368,6.69246377 0.900102564,5.14362319 C0.561367521,4.90405797 0.261196581,4.63014493 0,4.3215942 L0,11.8215942 C0,12.2376812 0.139487179,12.5931884 0.418735043,12.8892754 C0.698119658,13.1853623 1.03411966,13.3330435 1.42632479,13.3330435 L14.5464615,13.3330435 C14.9385299,13.3330435 15.2745299,13.1853623 15.5539145,12.8892754 C15.8332991,12.5931884 15.9727863,12.2376812 15.9727863,11.8215942 L15.9727863,4.3215942 C15.7169231,4.62391304 15.4198974,4.89782609 15.0811624,5.14362319 Z" id="Fill-3" fill="#000000" mask="url(#mask-2)"></path>
            </g>
        </g>
    </g>
</svg>