
<svg width="17px" height="17px" viewBox="0 0 17 17" version="1.1" xmlns="http://www.w3.org/2000/svg" xmlns:xlink="http://www.w3.org/1999/xlink">
    <!-- Generator: Sketch 43.2 (39069) - http://www.bohemiancoding.com/sketch -->
    <desc>Created with Sketch.</desc>
    <defs>
        <polygon id="path-1" points="3.362 0.189710145 0.015 0.189710145 0.015 17 6.709 17 6.709 0.189710145 3.362 0.189710145"></polygon>
    </defs>
    <g id="Page-1" stroke="none" stroke-width="1" fill="none" fill-rule="evenodd" opacity="0.2">
        <g id="menu" transform="translate(-31.000000, -327.000000)">
            <g id="order-interface-symbol-with-down-arrow" transform="translate(31.000000, 327.000000)">
                <g id="Group-3">
                    <mask id="mask-2" fill="white">
                        <use xlink:href="#path-1"></use>
                    </mask>
                    <g id="Clip-2"></g>
                    <path d="M3.13875,16.9162319 C3.209,16.9721594 3.28225,17 3.3585,17 C3.4405,17 3.51375,16.9721594 3.57725,16.9162319 L6.61325,13.9232464 C6.67675,13.8481014 6.709,13.7729565 6.709,13.698058 C6.709,13.6103478 6.67975,13.5381594 6.623,13.4824783 C6.5655,13.4265507 6.49325,13.3977246 6.40425,13.3977246 L5.77625,13.3977246 L5.77625,0.489797101 C5.77625,0.402333333 5.748,0.330144928 5.6905,0.274217391 C5.63375,0.217550725 5.5605,0.189710145 5.47175,0.189710145 L1.44425,0.189710145 C1.3555,0.189710145 1.28225,0.217550725 1.2255,0.274217391 C1.168,0.330144928 1.13975,0.402333333 1.13975,0.489797101 L1.13975,13.3977246 L0.3115,13.3977246 C0.172,13.3977246 0.07725,13.4603043 0.02625,13.5854638 C-0.0245,13.7047101 -0.002,13.8133623 0.09275,13.9136377 L3.13875,16.9162319 Z" id="Fill-1" fill="#000000" mask="url(#mask-2)"></path>
                </g>
                <path d="M8.53625,13.3718551 L10.97275,13.3718551 C11.0615,13.3718551 11.13475,13.3437681 11.1925,13.288087 C11.249,13.2311739 11.27725,13.1589855 11.27725,13.0725072 L11.27725,11.2707536 C11.27725,11.1832899 11.249,11.1111014 11.1925,11.0551739 C11.13475,10.9985072 11.0615,10.9704203 10.97275,10.9704203 L8.53625,10.9704203 C8.44725,10.9704203 8.375,10.9985072 8.3175,11.0551739 C8.26075,11.1111014 8.2315,11.1832899 8.2315,11.2707536 L8.2315,13.0725072 C8.2315,13.1589855 8.26075,13.2311739 8.3175,13.288087 C8.375,13.3437681 8.44725,13.3718551 8.53625,13.3718551 Z" id="Fill-4" fill="#000000"></path>
                <path d="M8.53625,9.94844928 L12.80075,9.94844928 C12.88975,9.94844928 12.963,9.9206087 13.0195,9.86468116 C13.07725,9.80801449 13.1055,9.73582609 13.1055,9.64811594 L13.1055,7.8475942 C13.1055,7.75988406 13.07725,7.68769565 13.0195,7.63201449 C12.963,7.57510145 12.88975,7.54726087 12.80075,7.54726087 L8.53625,7.54726087 C8.44725,7.54726087 8.375,7.57510145 8.3175,7.63201449 C8.26075,7.68769565 8.2315,7.75988406 8.2315,7.8475942 L8.2315,9.64811594 C8.2315,9.73582609 8.26075,9.80801449 8.3175,9.86468116 C8.375,9.9206087 8.44725,9.94844928 8.53625,9.94844928 Z" id="Fill-5" fill="#000000"></path>
                <path d="M8.53625,6.52504348 L14.628,6.52504348 C14.71675,6.52504348 14.79,6.4972029 14.84775,6.44053623 C14.90425,6.3846087 14.9325,6.31242029 14.9325,6.22495652 L14.9325,4.42418841 C14.9325,4.33672464 14.90425,4.26453623 14.84775,4.20762319 C14.79,4.15194203 14.71675,4.12385507 14.628,4.12385507 L8.53625,4.12385507 C8.44725,4.12385507 8.375,4.15194203 8.3175,4.20762319 C8.26075,4.26453623 8.2315,4.33672464 8.2315,4.42418841 L8.2315,6.22495652 C8.2315,6.31242029 8.26075,6.3846087 8.3175,6.44053623 C8.375,6.4972029 8.44725,6.52504348 8.53625,6.52504348 Z" id="Fill-6" fill="#000000"></path>
                <path d="M8.53625,3.10188406 L16.456,3.10188406 C16.545,3.10188406 16.61825,3.07404348 16.67475,3.01713043 C16.7325,2.96144928 16.76075,2.88926087 16.76075,2.80155072 L16.76075,1.00102899 C16.76075,0.913318841 16.7325,0.841130435 16.67475,0.784463768 C16.61825,0.728536232 16.545,0.700695652 16.456,0.700695652 L8.53625,0.700695652 C8.44725,0.700695652 8.375,0.728536232 8.3175,0.784463768 C8.26075,0.841130435 8.2315,0.913318841 8.2315,1.00102899 L8.2315,2.80155072 C8.2315,2.88926087 8.26075,2.96144928 8.3175,3.01713043 C8.375,3.07404348 8.44725,3.10188406 8.53625,3.10188406 Z" id="Fill-7" fill="#000000"></path>
            </g>
        </g>
    </g>
</svg>