
<svg width="22px" height="22px" viewBox="0 0 22 22" version="1.1" xmlns="http://www.w3.org/2000/svg" xmlns:xlink="http://www.w3.org/1999/xlink">
    <!-- Generator: Sketch 43.2 (39069) - http://www.bohemiancoding.com/sketch -->
    <desc>Created with Sketch.</desc>
    <defs>
        <polygon id="path-1" points="0.00554621849 0.0483005319 0.00554621849 21.828125 21.9634874 21.828125 21.9634874 0.0483005319 0.00554621849 0.0483005319"></polygon>
    </defs>
    <g id="Page-1" stroke="none" stroke-width="1" fill="none" fill-rule="evenodd" opacity="0.2">
        <g id="menu" transform="translate(-27.000000, -229.000000)">
            <g id="settings" transform="translate(27.000000, 229.000000)">
                <path d="M15.0029832,7.30174003 C15.0029832,7.94209362 14.4862605,8.46132434 13.8485378,8.46132434 C13.2112773,8.46132434 12.6945546,7.94209362 12.6945546,7.30174003 C12.6945546,6.66129355 13.2112773,6.14206283 13.8485378,6.14206283 C14.4862605,6.14206283 15.0029832,6.66129355 15.0029832,7.30174003 Z" id="Fill-1" fill="#000000"></path>
                <g id="Group-5">
                    <mask id="mask-2" fill="white">
                        <use xlink:href="#path-1"></use>
                    </mask>
                    <g id="Clip-3"></g>
                    <path d="M21.4381681,6.1494008 L20.1224202,6.1494008 C20.0165798,5.82244335 19.8847647,5.50347407 19.7288235,5.19620838 L20.6596639,4.26085 C20.8647815,4.05473677 20.8647815,3.72090578 20.6596639,3.51479255 L18.513,1.35780226 C18.3079748,1.15206057 17.9757563,1.15206057 17.7706387,1.35780226 L16.8397983,2.29316064 C16.5339244,2.13636968 16.2165882,2.00437919 15.8912101,1.89765359 L15.8912101,0.575519415 C15.8912101,0.28450871 15.6561429,0.0483005319 15.3665378,0.0483005319 L12.3306303,0.0483005319 C12.0406555,0.0483005319 11.805958,0.28450871 11.805958,0.575519415 L11.805958,1.89765359 C11.4802101,2.00437919 11.1632437,2.13636968 10.857,2.29353218 L9.92615966,1.3581738 C9.82789916,1.25906483 9.69432773,1.2036121 9.55530252,1.2036121 C9.41590756,1.2036121 9.28270588,1.25906483 9.18407563,1.3581738 L7.0375042,3.51479255 C6.8327563,3.72090578 6.8327563,4.05473677 7.0375042,4.26047846 L7.96834454,5.19620838 C7.81240336,5.50347407 7.68095798,5.82207181 7.5747479,6.1494008 L6.259,6.1494008 C5.96939496,6.1494008 5.73432773,6.38560898 5.73432773,6.67689834 L5.73432773,9.7272627 C5.73432773,10.0186449 5.96939496,10.2544816 6.259,10.2544816 L7.5747479,10.2544816 C7.68095798,10.5817177 7.81240336,10.9003154 7.96834454,11.2080455 L7.03787395,12.1434039 C6.9392437,12.2420485 6.88405882,12.3763611 6.88405882,12.5163398 C6.88405882,12.6560398 6.9392437,12.7899809 7.03787395,12.8889969 L9.18444538,15.0460801 C9.38919328,15.2521934 9.72141176,15.2521934 9.92652941,15.0460801 L10.8573697,14.1110004 C11.1636134,14.2677914 11.4805798,14.3998747 11.8063277,14.5065074 L11.8063277,15.8287345 C11.8063277,16.1200239 12.0410252,16.3558605 12.3309076,16.3558605 L15.3669076,16.3558605 C15.6565126,16.3558605 15.8915798,16.1200239 15.8915798,15.8287345 L15.8915798,14.5065074 C16.216958,14.3998747 16.5342941,14.2677914 16.8401681,14.1110004 L17.7713782,15.0464517 C17.9761261,15.2521934 18.3082521,15.2521934 18.5133697,15.0464517 L20.6600336,12.8889969 C20.8651513,12.6832553 20.8651513,12.3495172 20.6600336,12.1434039 L19.7291933,11.2080455 C19.8851345,10.900687 20.0169496,10.5817177 20.1226975,10.2548531 L21.4385378,10.2548531 C21.7284202,10.2548531 21.9634874,10.0186449 21.9634874,9.7272627 L21.9634874,6.67689834 C21.9632101,6.38560898 21.7281429,6.1494008 21.4381681,6.1494008 Z M13.8485378,11.8190473 C11.8641008,11.8190473 10.2493193,10.1964281 10.2493193,8.20189475 C10.2493193,6.20782586 11.8641008,4.58520665 13.8485378,4.58520665 C15.833437,4.58520665 17.4478487,6.20782586 17.4478487,8.20189475 C17.4478487,10.1964281 15.833437,11.8190473 13.8485378,11.8190473 Z" id="Fill-2" fill="#000000" mask="url(#mask-2)"></path>
                    <path d="M8.28281513,16.0957807 L7.79178992,16.0957807 C7.76905042,16.0366126 7.74446218,15.977816 7.71885714,15.9197624 L8.06660504,15.5703267 C8.2712605,15.3646779 8.2712605,15.0308469 8.06660504,14.8247336 L6.96928571,13.7220882 C6.76453782,13.5167181 6.43231933,13.5163465 6.22720168,13.7220882 L5.87945378,14.071524 C5.82168067,14.0457018 5.7632605,14.0214586 5.70437815,13.9986088 L5.70437815,13.5047358 C5.70437815,13.2133536 5.46931092,12.977517 5.17970588,12.977517 L3.62815126,12.977517 C3.33817647,12.977517 3.10310924,13.2133536 3.10310924,13.5047358 L3.10310924,13.9986088 C3.04431933,14.0214586 2.98580672,14.0457018 2.92803361,14.071524 L2.58028571,13.7220882 C2.37553782,13.5163465 2.04331933,13.5163465 1.83829412,13.7220882 L0.741344538,14.8247336 C0.536226891,15.0308469 0.536226891,15.3646779 0.741344538,15.5703267 L1.08863025,15.9197624 C1.06302521,15.977816 1.03880672,16.0366126 1.01606723,16.0957807 L0.524672269,16.0957807 C0.235067227,16.0957807 0,16.3319889 0,16.6232783 L0,18.1823637 C0,18.4737459 0.235067227,18.7095826 0.524672269,18.7095826 L1.01606723,18.7095826 C1.03880672,18.7691223 1.06302521,18.8275473 1.08863025,18.8856009 L0.741344538,19.2350366 C0.536226891,19.441057 0.536226891,19.774888 0.741344538,19.9806297 L1.83866387,21.0832751 C2.04331933,21.2890168 2.37553782,21.2890168 2.58065546,21.0832751 L2.92803361,20.7338393 C2.98580672,20.7599402 3.04431933,20.7842762 3.10347899,20.8071261 L3.10347899,21.300999 C3.10347899,21.5920097 3.33817647,21.828125 3.62815126,21.828125 L5.17970588,21.828125 C5.46968067,21.828125 5.70437815,21.5920097 5.70437815,21.300999 L5.70437815,20.8071261 C5.76363025,20.7842762 5.82205042,20.7599402 5.87982353,20.7338393 L6.22757143,21.0832751 C6.43231933,21.2890168 6.76453782,21.2890168 6.96956303,21.0832751 L8.06660504,19.9806297 C8.27163025,19.774888 8.27163025,19.441057 8.06660504,19.2350366 L7.71922689,18.8856009 C7.74483193,18.8275473 7.76905042,18.7691223 7.79178992,18.7095826 L8.28318487,18.7095826 C8.57315966,18.7095826 8.80785714,18.4737459 8.80785714,18.1823637 L8.80785714,16.6232783 C8.80748739,16.3319889 8.57278992,16.0957807 8.28281513,16.0957807 Z M4.40378992,19.2103291 C3.41184874,19.2103291 2.60487395,18.3993445 2.60487395,17.4026816 C2.60487395,16.4059259 3.41184874,15.5950342 4.40378992,15.5950342 C5.39563866,15.5950342 6.20298319,16.4059259 6.20298319,17.4026816 C6.20298319,18.3993445 5.39563866,19.2103291 4.40378992,19.2103291 Z" id="Fill-4" fill="#000000" mask="url(#mask-2)"></path>
                </g>
                <path d="M15.1422857,9.10502181 L14.7978655,8.99866775 L13.8485378,9.45222832 L12.8996723,8.99866775 L12.5547899,9.10502181 C12.1890168,9.22763085 11.9340756,9.55598158 11.8997815,9.93699847 C12.3804538,10.4722055 13.0762269,10.8095662 13.8485378,10.8095662 C14.6213109,10.8095662 15.3167143,10.4722055 15.7976639,9.93662693 C15.7633697,9.55598158 15.5084286,9.22763085 15.1422857,9.10502181 Z" id="Fill-6" fill="#000000"></path>
            </g>
        </g>
    </g>
</svg>