
<svg width="19px" height="20px" viewBox="0 0 19 20" version="1.1" xmlns="http://www.w3.org/2000/svg" xmlns:xlink="http://www.w3.org/1999/xlink">
    <!-- Generator: Sketch 43.2 (39069) - http://www.bohemiancoding.com/sketch -->
    <desc>Created with Sketch.</desc>
    <defs>
        <polygon id="path-1" points="9.4484625 0.134963995 0.0285 0.134963995 0.0285 19.4197654 18.868425 19.4197654 18.868425 0.134963995 9.4484625 0.134963995"></polygon>
    </defs>
    <g id="Page-1" stroke="none" stroke-width="1" fill="none" fill-rule="evenodd" opacity="0.198402519">
        <g id="menu" transform="translate(-30.000000, -426.000000)">
            <g id="power-button-outline" transform="translate(30.000000, 426.000000)">
                <mask id="mask-2" fill="white">
                    <use xlink:href="#path-1"></use>
                </mask>
                <g id="Clip-2"></g>
                <path d="M18.868425,9.77663647 C18.868425,4.46109408 14.6357,0.134963995 9.433025,0.134963995 C4.23225,0.134963995 0,4.46109408 0,9.77663647 C0,15.0941208 4.23225,19.4197654 9.433025,19.4197654 C14.6357,19.4197654 18.868425,15.0941208 18.868425,9.77663647 Z M10.359275,9.76304297 C10.359275,10.2674588 9.960275,10.6772056 9.46485,10.6772056 C8.971325,10.6772056 8.568525,10.2674588 8.568525,9.76304297 L8.568525,5.00337747 C8.568525,4.49896167 8.971325,4.08921487 9.46485,4.08921487 C9.958375,4.08921487 10.359275,4.49896167 10.359275,5.00337747 L10.359275,9.76304297 Z M15.5268,9.79362834 C15.5268,13.2259861 12.79365,16.0194495 9.433025,16.0194495 C6.074775,16.0194495 3.341625,13.2259861 3.341625,9.79362834 C3.341625,8.12842509 3.976225,6.56420209 5.128575,5.38836469 C5.3029,5.2101928 5.531375,5.12086411 5.761275,5.12086411 C5.989275,5.12086411 6.21965,5.2101928 6.393975,5.39030662 C6.744525,5.74665041 6.744525,6.32680139 6.393975,6.68363066 C5.58125,7.51429036 5.132375,8.61779094 5.132375,9.79362834 C5.132375,12.2171545 7.061825,14.1877259 9.433025,14.1877259 C11.806125,14.1877259 13.73415,12.2171545 13.73415,9.79362834 C13.73415,8.61973287 13.287175,7.51623229 12.47635,6.68557259 C12.125325,6.32680139 12.125325,5.74859233 12.47635,5.39030662 C12.825,5.03347735 13.392625,5.03347735 13.74175,5.39030662 C14.8922,6.56565854 15.5268,8.13036702 15.5268,9.79362834 Z" id="Fill-1" fill="#000000" mask="url(#mask-2)"></path>
            </g>
        </g>
    </g>
</svg>