
<svg width="14px" height="15px" viewBox="0 0 14 15" version="1.1" xmlns="http://www.w3.org/2000/svg" xmlns:xlink="http://www.w3.org/1999/xlink">
    <!-- Generator: Sketch 43.2 (39069) - http://www.bohemiancoding.com/sketch -->
    <desc>Created with Sketch.</desc>
    <defs>
        <polygon id="path-1" points="6.962025 0.0994471545 0.021 0.0994471545 0.021 14.3093008 13.90305 14.3093008 13.90305 0.0994471545 6.962025 0.0994471545"></polygon>
    </defs>
    <g id="Page-1" stroke="none" stroke-width="1" fill="none" fill-rule="evenodd" opacity="0.198402519">
        <g id="menu" transform="translate(-30.000000, -426.000000)">
            <g id="power-button-outline" transform="translate(30.000000, 426.000000)">
                <mask id="mask-2" fill="white">
                    <use xlink:href="#path-1"></use>
                </mask>
                <g id="Clip-2"></g>
                <path d="M13.90305,7.2038374 C13.90305,3.28712195 10.7842,0.0994471545 6.95065,0.0994471545 C3.1185,0.0994471545 0,3.28712195 0,7.2038374 C0,11.1219837 3.1185,14.3093008 6.95065,14.3093008 C10.7842,14.3093008 13.90305,11.1219837 13.90305,7.2038374 Z M7.63315,7.19382114 C7.63315,7.56549593 7.33915,7.86741463 6.9741,7.86741463 C6.61045,7.86741463 6.31365,7.56549593 6.31365,7.19382114 L6.31365,3.68669919 C6.31365,3.31502439 6.61045,3.01310569 6.9741,3.01310569 C7.33775,3.01310569 7.63315,3.31502439 7.63315,3.68669919 L7.63315,7.19382114 Z M11.4408,7.21635772 C11.4408,9.74546341 9.4269,11.8038049 6.95065,11.8038049 C4.47615,11.8038049 2.46225,9.74546341 2.46225,7.21635772 C2.46225,5.98936585 2.92985,4.83678049 3.77895,3.97037398 C3.9074,3.83908943 4.07575,3.77326829 4.24515,3.77326829 C4.41315,3.77326829 4.5829,3.83908943 4.71135,3.97180488 C4.96965,4.23437398 4.96965,4.66185366 4.71135,4.92478049 C4.1125,5.53684553 3.78175,6.34995122 3.78175,7.21635772 C3.78175,9.00211382 5.20345,10.4541138 6.95065,10.4541138 C8.69925,10.4541138 10.1199,9.00211382 10.1199,7.21635772 C10.1199,6.35138211 9.79055,5.53827642 9.1931,4.92621138 C8.93445,4.66185366 8.93445,4.23580488 9.1931,3.97180488 C9.45,3.70887805 9.86825,3.70887805 10.1255,3.97180488 C10.9732,4.83785366 11.4408,5.99079675 11.4408,7.21635772 Z" id="Fill-1" fill="#000000" mask="url(#mask-2)"></path>
            </g>
        </g>
    </g>
</svg>